<svg xmlns="http://www.w3.org/2000/svg" version="1.1" xmlns:xlink="http://www.w3.org/1999/xlink" xmlns:svgjs="http://svgjs.dev/svgjs" width="1440" height="720" preserveAspectRatio="none" viewBox="0 0 1440 720"><g mask="url(&quot;#SvgjsMask2234&quot;)" fill="none"><rect width="1440" height="720" x="0" y="0" fill="url(&quot;#SvgjsRadialGradient2235&quot;)"></rect><g mask="url(&quot;#SvgjsMask2236&quot;)"><path d="M768.5 478.5L797.5 449.5L826.5 449.5L855.5 449.5L884.5 449.5L913.5 449.5L942.5 449.5M43.5 362.5L72.5 362.5L101.5 362.5L130.5 362.5L159.5 362.5L188.5 362.5L217.5 362.5M449.5 478.5L478.5 449.5L507.5 420.5L536.5 420.5L565.5 420.5L594.5 420.5L623.5 420.5L652.5 420.5L681.5 420.5L710.5 420.5L739.5 420.5L768.5 420.5M420.5 478.5L449.5 449.5L478.5 420.5L507.5 391.5L536.5 391.5L565.5 391.5L594.5 362.5L623.5 362.5L652.5 362.5L681.5 362.5L710.5 362.5M797.5 478.5L826.5 507.5L855.5 507.5M246.5 391.5L275.5 391.5L304.5 391.5L333.5 391.5M304.5 449.5L333.5 420.5M-14.5 362.5L14.5 362.5L43.5 362.5L72.5 391.5L101.5 391.5L130.5 391.5L159.5 391.5L188.5 391.5L217.5 391.5L246.5 391.5L275.5 420.5L304.5 449.5L333.5 449.5L362.5 449.5L391.5 449.5L420.5 478.5L449.5 478.5L478.5 478.5L507.5 449.5L536.5 449.5L565.5 449.5L594.5 449.5L623.5 449.5L652.5 449.5L681.5 449.5L710.5 449.5L739.5 449.5L768.5 478.5L797.5 478.5L826.5 478.5L855.5 478.5" stroke="rgba(139, 170, 242, 1)" stroke-width="4.83"></path><path d="M848.25 478.5 a7.25 7.25 0 1 0 14.5 0 a7.25 7.25 0 1 0 -14.5 0zM935.25 449.5 a7.25 7.25 0 1 0 14.5 0 a7.25 7.25 0 1 0 -14.5 0zM210.25 362.5 a7.25 7.25 0 1 0 14.5 0 a7.25 7.25 0 1 0 -14.5 0zM761.25 420.5 a7.25 7.25 0 1 0 14.5 0 a7.25 7.25 0 1 0 -14.5 0zM703.25 362.5 a7.25 7.25 0 1 0 14.5 0 a7.25 7.25 0 1 0 -14.5 0zM848.25 507.5 a7.25 7.25 0 1 0 14.5 0 a7.25 7.25 0 1 0 -14.5 0zM326.25 391.5 a7.25 7.25 0 1 0 14.5 0 a7.25 7.25 0 1 0 -14.5 0zM326.25 420.5 a7.25 7.25 0 1 0 14.5 0 a7.25 7.25 0 1 0 -14.5 0z" fill="rgba(139, 170, 242, 1)"></path><path d="M362.5 304.5L391.5 333.5L420.5 333.5M275.5 304.5L304.5 333.5M72.5 333.5L101.5 304.5M246.5 304.5L275.5 333.5L304.5 362.5L333.5 362.5L362.5 362.5M-14.5 333.5L14.5 333.5L43.5 333.5L72.5 333.5L101.5 333.5L130.5 333.5L159.5 333.5L188.5 333.5L217.5 304.5L246.5 304.5L275.5 304.5L304.5 304.5L333.5 304.5L362.5 304.5L391.5 304.5L420.5 304.5" stroke="rgba(139, 170, 242, 1)" stroke-width="4.83"></path><path d="M413.25 304.5 a7.25 7.25 0 1 0 14.5 0 a7.25 7.25 0 1 0 -14.5 0zM413.25 333.5 a7.25 7.25 0 1 0 14.5 0 a7.25 7.25 0 1 0 -14.5 0zM297.25 333.5 a7.25 7.25 0 1 0 14.5 0 a7.25 7.25 0 1 0 -14.5 0zM94.25 304.5 a7.25 7.25 0 1 0 14.5 0 a7.25 7.25 0 1 0 -14.5 0zM355.25 362.5 a7.25 7.25 0 1 0 14.5 0 a7.25 7.25 0 1 0 -14.5 0z" fill="rgba(139, 170, 242, 1)"></path><path d="M507.5 507.5L536.5 478.5L565.5 478.5L594.5 478.5L623.5 478.5M-14.5 391.5L14.5 391.5L43.5 391.5L72.5 420.5L101.5 420.5L130.5 420.5L159.5 420.5L188.5 420.5L217.5 420.5L246.5 420.5L275.5 449.5L304.5 478.5L333.5 478.5L362.5 478.5L391.5 478.5L420.5 507.5L449.5 507.5L478.5 507.5L507.5 507.5L536.5 507.5L565.5 507.5L594.5 507.5" stroke="rgba(139, 170, 242, 1)" stroke-width="4.83"></path><path d="M587.25 507.5 a7.25 7.25 0 1 0 14.5 0 a7.25 7.25 0 1 0 -14.5 0zM616.25 478.5 a7.25 7.25 0 1 0 14.5 0 a7.25 7.25 0 1 0 -14.5 0z" fill="rgba(139, 170, 242, 1)"></path><path d="M681.5 275.5L710.5 275.5L739.5 275.5L768.5 275.5L797.5 275.5L826.5 275.5M159.5 304.5L188.5 275.5M739.5 246.5L768.5 246.5L797.5 246.5L826.5 246.5M43.5 275.5L72.5 304.5M536.5 275.5L565.5 304.5L594.5 304.5L623.5 304.5L652.5 304.5L681.5 304.5L710.5 304.5L739.5 304.5L768.5 304.5L797.5 304.5L826.5 304.5L855.5 304.5L884.5 304.5M507.5 275.5L536.5 304.5L565.5 333.5L594.5 333.5L623.5 333.5L652.5 333.5L681.5 333.5L710.5 333.5L739.5 333.5L768.5 333.5L797.5 333.5L826.5 333.5L855.5 333.5L884.5 333.5L913.5 333.5M478.5 275.5L507.5 304.5M797.5 217.5L826.5 188.5L855.5 188.5L884.5 188.5L913.5 188.5M-14.5 304.5L14.5 304.5L43.5 275.5L72.5 275.5L101.5 275.5L130.5 304.5L159.5 304.5L188.5 304.5L217.5 275.5L246.5 275.5L275.5 275.5L304.5 275.5L333.5 275.5L362.5 275.5L391.5 275.5L420.5 275.5L449.5 275.5L478.5 275.5L507.5 275.5L536.5 275.5L565.5 275.5L594.5 275.5L623.5 275.5L652.5 275.5L681.5 275.5L710.5 246.5L739.5 246.5L768.5 217.5L797.5 217.5L826.5 217.5L855.5 246.5L884.5 246.5L913.5 246.5L942.5 246.5" stroke="rgba(139, 170, 242, 1)" stroke-width="4.83"></path><path d="M935.25 246.5 a7.25 7.25 0 1 0 14.5 0 a7.25 7.25 0 1 0 -14.5 0zM819.25 275.5 a7.25 7.25 0 1 0 14.5 0 a7.25 7.25 0 1 0 -14.5 0zM181.25 275.5 a7.25 7.25 0 1 0 14.5 0 a7.25 7.25 0 1 0 -14.5 0zM819.25 246.5 a7.25 7.25 0 1 0 14.5 0 a7.25 7.25 0 1 0 -14.5 0zM65.25 304.5 a7.25 7.25 0 1 0 14.5 0 a7.25 7.25 0 1 0 -14.5 0zM877.25 304.5 a7.25 7.25 0 1 0 14.5 0 a7.25 7.25 0 1 0 -14.5 0zM906.25 333.5 a7.25 7.25 0 1 0 14.5 0 a7.25 7.25 0 1 0 -14.5 0zM500.25 304.5 a7.25 7.25 0 1 0 14.5 0 a7.25 7.25 0 1 0 -14.5 0zM906.25 188.5 a7.25 7.25 0 1 0 14.5 0 a7.25 7.25 0 1 0 -14.5 0z" fill="rgba(139, 170, 242, 1)"></path><path d="M681.5 536.5L710.5 507.5L739.5 507.5L768.5 507.5L797.5 507.5L826.5 536.5L855.5 536.5L884.5 536.5L913.5 536.5M623.5 536.5L652.5 565.5L681.5 565.5L710.5 565.5M594.5 536.5L623.5 565.5M565.5 536.5L594.5 565.5M652.5 536.5L681.5 507.5L710.5 478.5L739.5 478.5M-14.5 420.5L14.5 420.5L43.5 420.5L72.5 449.5L101.5 449.5L130.5 449.5L159.5 449.5L188.5 449.5L217.5 449.5L246.5 449.5L275.5 478.5L304.5 507.5L333.5 507.5L362.5 507.5L391.5 507.5L420.5 536.5L449.5 536.5L478.5 536.5L507.5 536.5L536.5 536.5L565.5 536.5L594.5 536.5L623.5 536.5L652.5 536.5L681.5 536.5L710.5 536.5" stroke="rgba(139, 170, 242, 1)" stroke-width="4.83"></path><path d="M703.25 536.5 a7.25 7.25 0 1 0 14.5 0 a7.25 7.25 0 1 0 -14.5 0zM906.25 536.5 a7.25 7.25 0 1 0 14.5 0 a7.25 7.25 0 1 0 -14.5 0zM703.25 565.5 a7.25 7.25 0 1 0 14.5 0 a7.25 7.25 0 1 0 -14.5 0zM616.25 565.5 a7.25 7.25 0 1 0 14.5 0 a7.25 7.25 0 1 0 -14.5 0zM587.25 565.5 a7.25 7.25 0 1 0 14.5 0 a7.25 7.25 0 1 0 -14.5 0zM732.25 478.5 a7.25 7.25 0 1 0 14.5 0 a7.25 7.25 0 1 0 -14.5 0z" fill="rgba(139, 170, 242, 1)"></path><path d="M855.5 159.5L884.5 130.5L913.5 130.5L942.5 130.5L971.5 130.5L1000.5 130.5L1029.5 130.5L1058.5 130.5L1087.5 130.5L1116.5 130.5L1145.5 130.5L1174.5 130.5M710.5 217.5L739.5 188.5L768.5 159.5L797.5 130.5L826.5 130.5L855.5 130.5L884.5 101.5L913.5 72.5M1058.5 188.5L1087.5 188.5M1000.5 159.5L1029.5 159.5L1058.5 159.5L1087.5 159.5L1116.5 159.5L1145.5 159.5L1174.5 159.5L1203.5 159.5L1232.5 159.5L1261.5 159.5M971.5 159.5L1000.5 188.5L1029.5 217.5L1058.5 217.5L1087.5 246.5L1116.5 275.5L1145.5 304.5L1174.5 304.5M768.5 188.5L797.5 188.5M-14.5 275.5L14.5 275.5L43.5 246.5L72.5 246.5L101.5 246.5L130.5 246.5L159.5 246.5L188.5 246.5L217.5 246.5L246.5 246.5L275.5 246.5L304.5 246.5L333.5 246.5L362.5 246.5L391.5 246.5L420.5 246.5L449.5 246.5L478.5 246.5L507.5 246.5L536.5 246.5L565.5 246.5L594.5 246.5L623.5 246.5L652.5 246.5L681.5 246.5L710.5 217.5L739.5 217.5L768.5 188.5L797.5 159.5L826.5 159.5L855.5 159.5L884.5 159.5L913.5 159.5L942.5 159.5L971.5 159.5L1000.5 159.5L1029.5 188.5L1058.5 188.5L1087.5 217.5" stroke="rgba(139, 170, 242, 1)" stroke-width="4.83"></path><path d="M1080.25 217.5 a7.25 7.25 0 1 0 14.5 0 a7.25 7.25 0 1 0 -14.5 0zM1167.25 130.5 a7.25 7.25 0 1 0 14.5 0 a7.25 7.25 0 1 0 -14.5 0zM906.25 72.5 a7.25 7.25 0 1 0 14.5 0 a7.25 7.25 0 1 0 -14.5 0zM1080.25 188.5 a7.25 7.25 0 1 0 14.5 0 a7.25 7.25 0 1 0 -14.5 0zM1254.25 159.5 a7.25 7.25 0 1 0 14.5 0 a7.25 7.25 0 1 0 -14.5 0zM1167.25 304.5 a7.25 7.25 0 1 0 14.5 0 a7.25 7.25 0 1 0 -14.5 0zM790.25 188.5 a7.25 7.25 0 1 0 14.5 0 a7.25 7.25 0 1 0 -14.5 0z" fill="rgba(139, 170, 242, 1)"></path><path d="M768.5 594.5L797.5 565.5L826.5 565.5L855.5 565.5M652.5 594.5L681.5 623.5L710.5 652.5L739.5 652.5L768.5 652.5M594.5 594.5L623.5 623.5L652.5 623.5L681.5 652.5M826.5 594.5L855.5 623.5L884.5 623.5L913.5 623.5M884.5 594.5L913.5 565.5L942.5 536.5L971.5 536.5L1000.5 536.5M1000.5 594.5L1029.5 565.5L1058.5 536.5L1087.5 536.5L1116.5 536.5L1145.5 536.5L1174.5 536.5M942.5 594.5L971.5 623.5L1000.5 623.5L1029.5 623.5L1058.5 623.5L1087.5 623.5L1116.5 623.5L1145.5 623.5L1174.5 623.5M971.5 594.5L1000.5 565.5M797.5 594.5L826.5 623.5L855.5 652.5L884.5 652.5L913.5 652.5L942.5 652.5M-14.5 449.5L14.5 449.5L43.5 449.5L72.5 478.5L101.5 478.5L130.5 478.5L159.5 478.5L188.5 478.5L217.5 478.5L246.5 478.5L275.5 507.5L304.5 536.5L333.5 536.5L362.5 536.5L391.5 536.5L420.5 565.5L449.5 565.5L478.5 565.5L507.5 565.5L536.5 565.5L565.5 594.5L594.5 594.5L623.5 594.5L652.5 594.5L681.5 594.5L710.5 623.5L739.5 623.5L768.5 594.5L797.5 594.5L826.5 594.5L855.5 594.5L884.5 594.5L913.5 594.5L942.5 594.5L971.5 594.5L1000.5 594.5L1029.5 594.5L1058.5 565.5" stroke="rgba(139, 170, 242, 1)" stroke-width="4.83"></path><path d="M1051.25 565.5 a7.25 7.25 0 1 0 14.5 0 a7.25 7.25 0 1 0 -14.5 0zM848.25 565.5 a7.25 7.25 0 1 0 14.5 0 a7.25 7.25 0 1 0 -14.5 0zM761.25 652.5 a7.25 7.25 0 1 0 14.5 0 a7.25 7.25 0 1 0 -14.5 0zM674.25 652.5 a7.25 7.25 0 1 0 14.5 0 a7.25 7.25 0 1 0 -14.5 0zM906.25 623.5 a7.25 7.25 0 1 0 14.5 0 a7.25 7.25 0 1 0 -14.5 0zM993.25 536.5 a7.25 7.25 0 1 0 14.5 0 a7.25 7.25 0 1 0 -14.5 0zM1167.25 536.5 a7.25 7.25 0 1 0 14.5 0 a7.25 7.25 0 1 0 -14.5 0zM1167.25 623.5 a7.25 7.25 0 1 0 14.5 0 a7.25 7.25 0 1 0 -14.5 0zM993.25 565.5 a7.25 7.25 0 1 0 14.5 0 a7.25 7.25 0 1 0 -14.5 0zM935.25 652.5 a7.25 7.25 0 1 0 14.5 0 a7.25 7.25 0 1 0 -14.5 0z" fill="rgba(139, 170, 242, 1)"></path><path d="M-14.5 246.5L14.5 246.5L43.5 217.5L72.5 217.5L101.5 217.5L130.5 217.5L159.5 217.5L188.5 217.5L217.5 217.5L246.5 217.5L275.5 217.5L304.5 217.5L333.5 217.5L362.5 217.5L391.5 217.5L420.5 217.5" stroke="rgba(139, 170, 242, 1)" stroke-width="4.83"></path><path d="M413.25 217.5 a7.25 7.25 0 1 0 14.5 0 a7.25 7.25 0 1 0 -14.5 0z" fill="rgba(139, 170, 242, 1)"></path><path d="M-14.5 478.5L14.5 478.5L43.5 478.5" stroke="rgba(139, 170, 242, 1)" stroke-width="4.83"></path><path d="M36.25 478.5 a7.25 7.25 0 1 0 14.5 0 a7.25 7.25 0 1 0 -14.5 0z" fill="rgba(139, 170, 242, 1)"></path><path d="M449.5 217.5L478.5 188.5L507.5 188.5L536.5 188.5L565.5 188.5L594.5 188.5L623.5 188.5M652.5 217.5L681.5 188.5L710.5 188.5L739.5 159.5L768.5 130.5M420.5 188.5L449.5 188.5L478.5 159.5L507.5 159.5M-14.5 217.5L14.5 217.5L43.5 188.5L72.5 188.5L101.5 188.5L130.5 188.5L159.5 188.5L188.5 188.5L217.5 188.5L246.5 188.5L275.5 188.5L304.5 188.5L333.5 188.5L362.5 188.5L391.5 188.5L420.5 188.5L449.5 217.5L478.5 217.5L507.5 217.5L536.5 217.5L565.5 217.5L594.5 217.5L623.5 217.5L652.5 217.5L681.5 217.5" stroke="rgba(139, 170, 242, 1)" stroke-width="4.83"></path><path d="M674.25 217.5 a7.25 7.25 0 1 0 14.5 0 a7.25 7.25 0 1 0 -14.5 0zM616.25 188.5 a7.25 7.25 0 1 0 14.5 0 a7.25 7.25 0 1 0 -14.5 0zM761.25 130.5 a7.25 7.25 0 1 0 14.5 0 a7.25 7.25 0 1 0 -14.5 0zM500.25 159.5 a7.25 7.25 0 1 0 14.5 0 a7.25 7.25 0 1 0 -14.5 0z" fill="rgba(139, 170, 242, 1)"></path><path d="M362.5 565.5L391.5 594.5M188.5 507.5L217.5 536.5L246.5 536.5L275.5 565.5M101.5 507.5L130.5 536.5L159.5 536.5L188.5 536.5L217.5 565.5M72.5 507.5L101.5 536.5L130.5 565.5L159.5 594.5L188.5 594.5M-14.5 507.5L14.5 507.5L43.5 507.5L72.5 507.5L101.5 507.5L130.5 507.5L159.5 507.5L188.5 507.5L217.5 507.5L246.5 507.5L275.5 536.5L304.5 565.5L333.5 565.5L362.5 565.5L391.5 565.5L420.5 594.5L449.5 594.5L478.5 594.5L507.5 594.5" stroke="rgba(139, 170, 242, 1)" stroke-width="4.83"></path><path d="M500.25 594.5 a7.25 7.25 0 1 0 14.5 0 a7.25 7.25 0 1 0 -14.5 0zM384.25 594.5 a7.25 7.25 0 1 0 14.5 0 a7.25 7.25 0 1 0 -14.5 0zM268.25 565.5 a7.25 7.25 0 1 0 14.5 0 a7.25 7.25 0 1 0 -14.5 0zM210.25 565.5 a7.25 7.25 0 1 0 14.5 0 a7.25 7.25 0 1 0 -14.5 0zM181.25 594.5 a7.25 7.25 0 1 0 14.5 0 a7.25 7.25 0 1 0 -14.5 0z" fill="rgba(139, 170, 242, 1)"></path><path d="M246.5 159.5L275.5 130.5M159.5 159.5L188.5 130.5L217.5 101.5L246.5 101.5M43.5 159.5L72.5 130.5L101.5 130.5L130.5 130.5L159.5 130.5M333.5 159.5L362.5 130.5L391.5 130.5M-14.5 188.5L14.5 188.5L43.5 159.5L72.5 159.5L101.5 159.5L130.5 159.5L159.5 159.5L188.5 159.5L217.5 159.5L246.5 159.5L275.5 159.5L304.5 159.5L333.5 159.5L362.5 159.5L391.5 159.5L420.5 130.5" stroke="rgba(139, 170, 242, 1)" stroke-width="4.83"></path><path d="M413.25 130.5 a7.25 7.25 0 1 0 14.5 0 a7.25 7.25 0 1 0 -14.5 0zM268.25 130.5 a7.25 7.25 0 1 0 14.5 0 a7.25 7.25 0 1 0 -14.5 0zM239.25 101.5 a7.25 7.25 0 1 0 14.5 0 a7.25 7.25 0 1 0 -14.5 0zM152.25 130.5 a7.25 7.25 0 1 0 14.5 0 a7.25 7.25 0 1 0 -14.5 0zM384.25 130.5 a7.25 7.25 0 1 0 14.5 0 a7.25 7.25 0 1 0 -14.5 0z" fill="rgba(139, 170, 242, 1)"></path></g></g><defs><mask id="SvgjsMask2234"><rect width="1440" height="720" fill="#ffffff"></rect></mask><radialGradient cx="50%" cy="50%" r="804.98" gradientUnits="userSpaceOnUse" id="SvgjsRadialGradient2235"><stop stop-color="#0e2a47" offset="0"></stop><stop stop-color="rgba(0, 0, 0, 1)" offset="1"></stop></radialGradient><mask id="SvgjsMask2236"><rect width="1440" height="720" fill="white"></rect><path d="M851.87 478.5 a3.63 3.63 0 1 0 7.26 0 a3.63 3.63 0 1 0 -7.26 0zM938.87 449.5 a3.63 3.63 0 1 0 7.26 0 a3.63 3.63 0 1 0 -7.26 0zM213.87 362.5 a3.63 3.63 0 1 0 7.26 0 a3.63 3.63 0 1 0 -7.26 0zM764.87 420.5 a3.63 3.63 0 1 0 7.26 0 a3.63 3.63 0 1 0 -7.26 0zM706.87 362.5 a3.63 3.63 0 1 0 7.26 0 a3.63 3.63 0 1 0 -7.26 0zM851.87 507.5 a3.63 3.63 0 1 0 7.26 0 a3.63 3.63 0 1 0 -7.26 0zM329.87 391.5 a3.63 3.63 0 1 0 7.26 0 a3.63 3.63 0 1 0 -7.26 0zM329.87 420.5 a3.63 3.63 0 1 0 7.26 0 a3.63 3.63 0 1 0 -7.26 0z" fill="black"></path><path d="M416.87 304.5 a3.63 3.63 0 1 0 7.26 0 a3.63 3.63 0 1 0 -7.26 0zM416.87 333.5 a3.63 3.63 0 1 0 7.26 0 a3.63 3.63 0 1 0 -7.26 0zM300.87 333.5 a3.63 3.63 0 1 0 7.26 0 a3.63 3.63 0 1 0 -7.26 0zM97.87 304.5 a3.63 3.63 0 1 0 7.26 0 a3.63 3.63 0 1 0 -7.26 0zM358.87 362.5 a3.63 3.63 0 1 0 7.26 0 a3.63 3.63 0 1 0 -7.26 0z" fill="black"></path><path d="M590.87 507.5 a3.63 3.63 0 1 0 7.26 0 a3.63 3.63 0 1 0 -7.26 0zM619.87 478.5 a3.63 3.63 0 1 0 7.26 0 a3.63 3.63 0 1 0 -7.26 0z" fill="black"></path><path d="M938.87 246.5 a3.63 3.63 0 1 0 7.26 0 a3.63 3.63 0 1 0 -7.26 0zM822.87 275.5 a3.63 3.63 0 1 0 7.26 0 a3.63 3.63 0 1 0 -7.26 0zM184.87 275.5 a3.63 3.63 0 1 0 7.26 0 a3.63 3.63 0 1 0 -7.26 0zM822.87 246.5 a3.63 3.63 0 1 0 7.26 0 a3.63 3.63 0 1 0 -7.26 0zM68.87 304.5 a3.63 3.63 0 1 0 7.26 0 a3.63 3.63 0 1 0 -7.26 0zM880.87 304.5 a3.63 3.63 0 1 0 7.26 0 a3.63 3.63 0 1 0 -7.26 0zM909.87 333.5 a3.63 3.63 0 1 0 7.26 0 a3.63 3.63 0 1 0 -7.26 0zM503.87 304.5 a3.63 3.63 0 1 0 7.26 0 a3.63 3.63 0 1 0 -7.26 0zM909.87 188.5 a3.63 3.63 0 1 0 7.26 0 a3.63 3.63 0 1 0 -7.26 0z" fill="black"></path><path d="M706.87 536.5 a3.63 3.63 0 1 0 7.26 0 a3.63 3.63 0 1 0 -7.26 0zM909.87 536.5 a3.63 3.63 0 1 0 7.26 0 a3.63 3.63 0 1 0 -7.26 0zM706.87 565.5 a3.63 3.63 0 1 0 7.26 0 a3.63 3.63 0 1 0 -7.26 0zM619.87 565.5 a3.63 3.63 0 1 0 7.26 0 a3.63 3.63 0 1 0 -7.26 0zM590.87 565.5 a3.63 3.63 0 1 0 7.26 0 a3.63 3.63 0 1 0 -7.26 0zM735.87 478.5 a3.63 3.63 0 1 0 7.26 0 a3.63 3.63 0 1 0 -7.26 0z" fill="black"></path><path d="M1083.87 217.5 a3.63 3.63 0 1 0 7.26 0 a3.63 3.63 0 1 0 -7.26 0zM1170.87 130.5 a3.63 3.63 0 1 0 7.26 0 a3.63 3.63 0 1 0 -7.26 0zM909.87 72.5 a3.63 3.63 0 1 0 7.26 0 a3.63 3.63 0 1 0 -7.26 0zM1083.87 188.5 a3.63 3.63 0 1 0 7.26 0 a3.63 3.63 0 1 0 -7.26 0zM1257.87 159.5 a3.63 3.63 0 1 0 7.26 0 a3.63 3.63 0 1 0 -7.26 0zM1170.87 304.5 a3.63 3.63 0 1 0 7.26 0 a3.63 3.63 0 1 0 -7.26 0zM793.87 188.5 a3.63 3.63 0 1 0 7.26 0 a3.63 3.63 0 1 0 -7.26 0z" fill="black"></path><path d="M1054.87 565.5 a3.63 3.63 0 1 0 7.26 0 a3.63 3.63 0 1 0 -7.26 0zM851.87 565.5 a3.63 3.63 0 1 0 7.26 0 a3.63 3.63 0 1 0 -7.26 0zM764.87 652.5 a3.63 3.63 0 1 0 7.26 0 a3.63 3.63 0 1 0 -7.26 0zM677.87 652.5 a3.63 3.63 0 1 0 7.26 0 a3.63 3.63 0 1 0 -7.26 0zM909.87 623.5 a3.63 3.63 0 1 0 7.26 0 a3.63 3.63 0 1 0 -7.26 0zM996.87 536.5 a3.63 3.63 0 1 0 7.26 0 a3.63 3.63 0 1 0 -7.26 0zM1170.87 536.5 a3.63 3.63 0 1 0 7.26 0 a3.63 3.63 0 1 0 -7.26 0zM1170.87 623.5 a3.63 3.63 0 1 0 7.26 0 a3.63 3.63 0 1 0 -7.26 0zM996.87 565.5 a3.63 3.63 0 1 0 7.26 0 a3.63 3.63 0 1 0 -7.26 0zM938.87 652.5 a3.63 3.63 0 1 0 7.26 0 a3.63 3.63 0 1 0 -7.26 0z" fill="black"></path><path d="M416.87 217.5 a3.63 3.63 0 1 0 7.26 0 a3.63 3.63 0 1 0 -7.26 0z" fill="black"></path><path d="M39.87 478.5 a3.63 3.63 0 1 0 7.26 0 a3.63 3.63 0 1 0 -7.26 0z" fill="black"></path><path d="M677.87 217.5 a3.63 3.63 0 1 0 7.26 0 a3.63 3.63 0 1 0 -7.26 0zM619.87 188.5 a3.63 3.63 0 1 0 7.26 0 a3.63 3.63 0 1 0 -7.26 0zM764.87 130.5 a3.63 3.63 0 1 0 7.26 0 a3.63 3.63 0 1 0 -7.26 0zM503.87 159.5 a3.63 3.63 0 1 0 7.26 0 a3.63 3.63 0 1 0 -7.26 0z" fill="black"></path><path d="M503.87 594.5 a3.63 3.63 0 1 0 7.26 0 a3.63 3.63 0 1 0 -7.26 0zM387.87 594.5 a3.63 3.63 0 1 0 7.26 0 a3.63 3.63 0 1 0 -7.26 0zM271.87 565.5 a3.63 3.63 0 1 0 7.26 0 a3.63 3.63 0 1 0 -7.26 0zM213.87 565.5 a3.63 3.63 0 1 0 7.26 0 a3.63 3.63 0 1 0 -7.26 0zM184.87 594.5 a3.63 3.63 0 1 0 7.26 0 a3.63 3.63 0 1 0 -7.26 0z" fill="black"></path><path d="M416.87 130.5 a3.63 3.63 0 1 0 7.26 0 a3.63 3.63 0 1 0 -7.26 0zM271.87 130.5 a3.63 3.63 0 1 0 7.26 0 a3.63 3.63 0 1 0 -7.26 0zM242.87 101.5 a3.63 3.63 0 1 0 7.26 0 a3.63 3.63 0 1 0 -7.26 0zM155.87 130.5 a3.63 3.63 0 1 0 7.26 0 a3.63 3.63 0 1 0 -7.26 0zM387.87 130.5 a3.63 3.63 0 1 0 7.26 0 a3.63 3.63 0 1 0 -7.26 0z" fill="black"></path></mask></defs></svg>