<svg id="Layer_1" data-name="Layer 1" xmlns="http://www.w3.org/2000/svg" viewBox="0 0 484.33 384.26"><defs><style>.cls-1{fill:#debbd9;}.cls-1,.cls-10,.cls-11,.cls-12,.cls-13,.cls-14,.cls-15,.cls-16,.cls-17,.cls-18,.cls-19,.cls-2,.cls-22,.cls-23,.cls-24,.cls-25,.cls-26,.cls-27,.cls-28,.cls-29,.cls-3,.cls-31,.cls-32,.cls-33,.cls-34,.cls-36,.cls-4,.cls-5,.cls-6,.cls-7,.cls-8,.cls-9{fill-rule:evenodd;}.cls-2{fill:#fff;}.cls-3{fill:#b3333c;}.cls-4{fill:#c54445;}.cls-5{fill:#db4446;}.cls-6{fill:#c99dc8;}.cls-7{fill:#79c9d9;}.cls-21,.cls-8{fill:#d85150;}.cls-9{fill:#a36e4f;}.cls-10,.cls-20{fill:#0f1011;}.cls-11{fill:#fffaf9;}.cls-12,.cls-30{fill:#010101;}.cls-13{fill:#7a4d35;}.cls-14{fill:#fae0d3;}.cls-15{fill:#af529f;}.cls-16{fill:#abbe48;}.cls-17{fill:#ccdf72;}.cls-18{fill:#7997a8;}.cls-19{fill:#252626;}.cls-22{fill:#a72b35;}.cls-23{fill:#e2ebf7;}.cls-24{fill:#e8685b;}.cls-25{fill:#f3ae84;}.cls-26{fill:#f6bb97;}.cls-27{fill:#ee8771;}.cls-28{fill:#d64341;}.cls-29{fill:#f8cbaf;}.cls-31{fill:#232221;}.cls-32{fill:#373736;}.cls-33{fill:#dfdfde;}.cls-34{fill:#bd865e;}.cls-35{fill:#925f41;}.cls-36{fill:#d49d80;}</style></defs><path class="cls-1" d="M129.3,577c-42.82,0-77.85-35.22-77.85-78.25h0c0-43,35-78.25,77.85-78.25h0a33.1,33.1,0,0,0,32.91-33.08h0A33.1,33.1,0,0,0,129.3,354.3h-3.92a34.41,34.41,0,0,1-34.22-34.4h0a34.4,34.4,0,0,1,34.22-34.39h12a13.4,13.4,0,0,0,13.32-13.4h0a13.4,13.4,0,0,0-13.32-13.39h-8.83a9.25,9.25,0,0,1-9.2-9.24h0a9.25,9.25,0,0,1,9.2-9.24h59.36a14.53,14.53,0,0,0,14.44-14.52h0a14.53,14.53,0,0,0-14.44-14.53H170.18A9.25,9.25,0,0,1,161,202h0a9.25,9.25,0,0,1,9.2-9.24h260a12.07,12.07,0,0,1,12,12.06h0a12.07,12.07,0,0,1-12,12.06H411.93a19,19,0,0,0-18.85,18.95h0a19,19,0,0,0,18.85,18.95h70.42a12.07,12.07,0,0,1,12,12.06h0a12.07,12.07,0,0,1-12,12.06H470.83a17.48,17.48,0,0,0-17.39,17.47h0a17.49,17.49,0,0,0,17.39,17.48h15.68a44.9,44.9,0,0,1,44.66,44.88h0a44.91,44.91,0,0,1-44.66,44.89H481.4a43.18,43.18,0,0,0-42.95,43.17h0a43.18,43.18,0,0,0,42.95,43.17h11.07a43.54,43.54,0,0,1,43.3,43.53h0A43.54,43.54,0,0,1,492.47,577ZM460.84,216.83a12.06,12.06,0,1,0-12-12.06,12,12,0,0,0,12,12.06ZM102.76,258.72a9.24,9.24,0,1,0-9.19-9.24A9.22,9.22,0,0,0,102.76,258.72Z" transform="translate(-51.45 -192.71)"/><path class="cls-2" d="M307.5,229.48a2.72,2.72,0,1,0-2.71-2.72A2.71,2.71,0,0,0,307.5,229.48Z" transform="translate(-51.45 -192.71)"/><path class="cls-3" d="M168.76,314.1h44.88a2.2,2.2,0,0,1,2.19,2.2v25.86a2.2,2.2,0,0,1-2.19,2.2H168.76a2.2,2.2,0,0,1-2.19-2.2V316.3A2.2,2.2,0,0,1,168.76,314.1Z" transform="translate(-51.45 -192.71)"/><path class="cls-4" d="M215.8,342.54a2.2,2.2,0,0,1-2.16,1.82H168.76a2.22,2.22,0,0,1-2.16-1.82l24.6-17.15Z" transform="translate(-51.45 -192.71)"/><path class="cls-5" d="M168.76,314.1h44.88a2.16,2.16,0,0,1,1.61.71L191.2,331.58l-24-16.77A2.18,2.18,0,0,1,168.76,314.1Z" transform="translate(-51.45 -192.71)"/><path class="cls-6" d="M402.43,380h14a2.64,2.64,0,0,1,2.62,2.64v14.06a2.63,2.63,0,0,1-2.62,2.64h-14a2.63,2.63,0,0,1-2.62-2.64V382.62A2.64,2.64,0,0,1,402.43,380Z" transform="translate(-51.45 -192.71)"/><path class="cls-6" d="M402.43,404.34h14a2.64,2.64,0,0,1,2.62,2.64v14.07a2.63,2.63,0,0,1-2.62,2.63h-14a2.63,2.63,0,0,1-2.62-2.63V407A2.64,2.64,0,0,1,402.43,404.34Z" transform="translate(-51.45 -192.71)"/><path class="cls-6" d="M402.43,428.7h14a2.64,2.64,0,0,1,2.62,2.64v14.07a2.64,2.64,0,0,1-2.62,2.64h-14a2.64,2.64,0,0,1-2.62-2.64V431.34A2.64,2.64,0,0,1,402.43,428.7Z" transform="translate(-51.45 -192.71)"/><path class="cls-6" d="M402.43,453.07h14a2.63,2.63,0,0,1,2.62,2.63v14.07a2.64,2.64,0,0,1-2.62,2.64h-14a2.64,2.64,0,0,1-2.62-2.64V455.7A2.63,2.63,0,0,1,402.43,453.07Z" transform="translate(-51.45 -192.71)"/><path class="cls-2" d="M400.26,378.12h14a2.64,2.64,0,0,1,2.63,2.64v14.06a2.64,2.64,0,0,1-2.63,2.64h-14a2.64,2.64,0,0,1-2.63-2.64V380.76A2.64,2.64,0,0,1,400.26,378.12Z" transform="translate(-51.45 -192.71)"/><path class="cls-2" d="M400.26,402.48h14a2.64,2.64,0,0,1,2.63,2.64v14.07a2.63,2.63,0,0,1-2.63,2.63h-14a2.63,2.63,0,0,1-2.63-2.63V405.12A2.64,2.64,0,0,1,400.26,402.48Z" transform="translate(-51.45 -192.71)"/><path class="cls-2" d="M400.26,426.84h14a2.64,2.64,0,0,1,2.63,2.64v14.07a2.63,2.63,0,0,1-2.63,2.63h-14a2.63,2.63,0,0,1-2.63-2.63V429.48A2.64,2.64,0,0,1,400.26,426.84Z" transform="translate(-51.45 -192.71)"/><path class="cls-2" d="M400.26,451.2h14a2.64,2.64,0,0,1,2.63,2.64v14.07a2.64,2.64,0,0,1-2.63,2.64h-14a2.64,2.64,0,0,1-2.63-2.64V453.84A2.64,2.64,0,0,1,400.26,451.2Z" transform="translate(-51.45 -192.71)"/><path class="cls-7" d="M401.81,389.93a1.15,1.15,0,0,1,0-1.63,1.14,1.14,0,0,1,1.62,0l2.07,2.16,5.41-7.89a1.14,1.14,0,0,1,1.59-.29,1.15,1.15,0,0,1,.29,1.6l-6.18,9a1.18,1.18,0,0,1-.17.22,1.14,1.14,0,0,1-1.62,0Z" transform="translate(-51.45 -192.71)"/><path class="cls-8" d="M404.61,417.09a1.15,1.15,0,1,1-1.75-1.48l2.9-3.46-2.9-3.45a1.16,1.16,0,0,1,.13-1.63,1.14,1.14,0,0,1,1.62.14l2.65,3.15,2.64-3.15a1.15,1.15,0,0,1,1.62-.14,1.18,1.18,0,0,1,.14,1.63l-2.9,3.45,2.9,3.46a1.16,1.16,0,0,1-.14,1.62,1.15,1.15,0,0,1-1.62-.14l-2.64-3.15Z" transform="translate(-51.45 -192.71)"/><path class="cls-7" d="M401.81,438.66a1.15,1.15,0,0,1,0-1.63,1.14,1.14,0,0,1,1.62,0l2.07,2.16,5.41-7.89a1.14,1.14,0,0,1,1.59-.29,1.15,1.15,0,0,1,.29,1.6l-6.18,9a1.57,1.57,0,0,1-.17.21,1.13,1.13,0,0,1-1.62,0Z" transform="translate(-51.45 -192.71)"/><path class="cls-2" d="M430.86,493c.89,1.11,9.83,6.08,9.83,6.08l-3.31,47s-.09,5-5.72,5H413.43c-5.63,0-5.72-5-5.72-5l-3.3-47s8.93-5,9.83-6.08Z" transform="translate(-51.45 -192.71)"/><path class="cls-9" d="M439.9,509.12H405.2a1.16,1.16,0,0,0-.88.38,1.19,1.19,0,0,0-.32.91L406.08,540a1.2,1.2,0,0,0,1.2,1.13h30.54A1.2,1.2,0,0,0,439,540l2.08-29.54a1.23,1.23,0,0,0-.32-.91A1.17,1.17,0,0,0,439.9,509.12Z" transform="translate(-51.45 -192.71)"/><path class="cls-2" d="M435.13,489.84H410a5.59,5.59,0,0,0-5.56,5.58h0A5.59,5.59,0,0,0,410,501h25.17a5.59,5.59,0,0,0,5.56-5.59h0A5.58,5.58,0,0,0,435.13,489.84Z" transform="translate(-51.45 -192.71)"/><path class="cls-9" d="M441.42,495.41H403.68a3.14,3.14,0,0,0-3.13,3.13h0a3.14,3.14,0,0,0,3.13,3.14h37.74a3.13,3.13,0,0,0,3.12-3.14h0A3.13,3.13,0,0,0,441.42,495.41Z" transform="translate(-51.45 -192.71)"/><path class="cls-10" d="M422.55,536.84a11.74,11.74,0,1,0-11.68-11.74A11.74,11.74,0,0,0,422.55,536.84Z" transform="translate(-51.45 -192.71)"/><path class="cls-11" d="M422.55,535.43a10.34,10.34,0,1,0-10.28-10.33A10.33,10.33,0,0,0,422.55,535.43Z" transform="translate(-51.45 -192.71)"/><path class="cls-12" d="M422.55,516.79h0a5,5,0,0,0-5,5v6.62a5,5,0,0,0,3.31,4.71v-5.3c0-1.83.29-2.09,1-2.74l.33-.32a5.57,5.57,0,0,1,.51-.46c.65-.55,1.34-1.13,1.34-3.25v-4a4.77,4.77,0,0,0-1.51-.24Zm-.69,16.57v-5.54c0-1.41.19-1.59.67-2l.36-.34c.14-.14.29-.27.44-.4.83-.69,1.69-1.41,1.69-4v-3.59a5,5,0,0,1,2.5,4.33v6.62a5,5,0,0,1-5,5h0A5.09,5.09,0,0,1,421.86,533.36Z" transform="translate(-51.45 -192.71)"/><path class="cls-13" d="M402.94,496.42a3.16,3.16,0,0,0,1.49,2.67,3,3,0,0,0,1.63.47h37.75a2.78,2.78,0,0,0,.58-.06,3.13,3.13,0,0,1-3,2.18H403.68a3.14,3.14,0,0,1-.59-6.22A3.38,3.38,0,0,0,402.94,496.42Z" transform="translate(-51.45 -192.71)"/><path class="cls-14" d="M407,490.72a5.58,5.58,0,0,0,5.1,3.37h25.18a5.51,5.51,0,0,0,3-.88,5.55,5.55,0,0,1,.45,2.2H404.4A5.62,5.62,0,0,1,407,490.72Z" transform="translate(-51.45 -192.71)"/><path class="cls-14" d="M410.26,504.37a1.31,1.31,0,0,0-1,.45,1.33,1.33,0,0,0-.37,1l.23,3.26h-4l-.52-7.44h35.92l-.19,2.69Zm1.45,36.71.38,5.35a1.29,1.29,0,0,0,1.29,1.2h23.68c-.51,1.47-1.86,3.45-5.41,3.45H413.42c-5.63,0-5.72-5-5.72-5l-.35-5Z" transform="translate(-51.45 -192.71)"/><path class="cls-13" d="M409,510.41,411,540a1.2,1.2,0,0,0,1.2,1.13h-5a1.2,1.2,0,0,1-1.2-1.13L404,510.41a1.19,1.19,0,0,1,.32-.91,1.16,1.16,0,0,1,.79-.38h5.05a1.16,1.16,0,0,0-.88.38A1.19,1.19,0,0,0,409,510.41Z" transform="translate(-51.45 -192.71)"/><path class="cls-15" d="M139.06,372.64h67.37a6.25,6.25,0,0,1,6.21,6.25V413.6a.69.69,0,0,1-.43.64.66.66,0,0,1-.75-.15l-10.59-10.64H139.06a6.24,6.24,0,0,1-6.21-6.24V378.89A6.24,6.24,0,0,1,139.06,372.64Z" transform="translate(-51.45 -192.71)"/><path class="cls-2" d="M147.24,392.63,139.16,389v-1.17l8.08-4.05v2l-5.57,2.59,5.57,2.3v2Zm3-2.32v-.6a2.69,2.69,0,0,1,.33-1.36,4.39,4.39,0,0,1,1.22-1.24,5,5,0,0,0,1.13-1,1.44,1.44,0,0,0,.27-.86.91.91,0,0,0-.39-.8,1.81,1.81,0,0,0-1.09-.28,6.29,6.29,0,0,0-2.78.8l-.89-1.79a7.73,7.73,0,0,1,3.85-1,4.09,4.09,0,0,1,2.67.81,2.67,2.67,0,0,1,1,2.16,2.89,2.89,0,0,1-.4,1.55,6,6,0,0,1-1.55,1.47,5,5,0,0,0-1,.88,1.39,1.39,0,0,0-.2.79v.49Zm-.26,2.8a1.4,1.4,0,0,1,.36-1,1.51,1.51,0,0,1,1.07-.35,1.45,1.45,0,0,1,1,.36,1.41,1.41,0,0,1,.37,1,1.3,1.3,0,0,1-1.42,1.39,1.46,1.46,0,0,1-1.06-.36,1.37,1.37,0,0,1-.37-1Zm10-5.16h.83a2.72,2.72,0,0,0,1.74-.46,1.62,1.62,0,0,0,.58-1.35,1.66,1.66,0,0,0-.48-1.31,2.23,2.23,0,0,0-1.52-.43h-1.15V388Zm5.7-1.9a3.67,3.67,0,0,1-1.2,3,5.13,5.13,0,0,1-3.42,1h-1.08v4.25H157.4v-12h3.8a5.06,5.06,0,0,1,3.29.94,3.44,3.44,0,0,1,1.13,2.79Zm12,8.23H175.1v-5.15h-4.71v5.15h-2.53v-12h2.53V387h4.71v-4.7h2.51v12Zm5.53-6.33H184a2.72,2.72,0,0,0,1.74-.46,1.62,1.62,0,0,0,.58-1.35,1.66,1.66,0,0,0-.49-1.31,2.21,2.21,0,0,0-1.52-.43h-1.14V388Zm5.69-1.9a3.67,3.67,0,0,1-1.2,3,5.12,5.12,0,0,1-3.41,1h-1.08v4.25h-2.52v-12h3.79a5.07,5.07,0,0,1,3.3.94,3.43,3.43,0,0,1,1.12,2.79Zm3,4.26v-.6a2.69,2.69,0,0,1,.33-1.36,4.39,4.39,0,0,1,1.22-1.24,5,5,0,0,0,1.13-1,1.44,1.44,0,0,0,.27-.86.91.91,0,0,0-.39-.8,1.81,1.81,0,0,0-1.09-.28,6.29,6.29,0,0,0-2.78.8l-.89-1.79a7.73,7.73,0,0,1,3.85-1,4.09,4.09,0,0,1,2.67.81,2.67,2.67,0,0,1,1,2.16,2.89,2.89,0,0,1-.4,1.55,6.16,6.16,0,0,1-1.55,1.47,5,5,0,0,0-1,.88,1.47,1.47,0,0,0-.21.79v.49Zm-.26,2.8a1.36,1.36,0,0,1,.37-1,1.47,1.47,0,0,1,1.06-.35,1.45,1.45,0,0,1,1.05.36,1.41,1.41,0,0,1,.37,1A1.3,1.3,0,0,1,193,394.5a1.46,1.46,0,0,1-1.06-.36,1.37,1.37,0,0,1-.37-1Zm6.68-2.44,5.57-2.3-5.57-2.59v-2l8.08,4.05V389l-8.08,3.59Z" transform="translate(-51.45 -192.71)"/><path class="cls-16" d="M157.86,527.41l3.24,4.08h14.71l3.24-4.08C190.67,495.89,146.23,495.89,157.86,527.41Z" transform="translate(-51.45 -192.71)"/><path class="cls-17" d="M162.05,527.41l2,4.08h8.89l2-4.08C181.88,495.89,155,495.89,162.05,527.41Z" transform="translate(-51.45 -192.71)"/><path class="cls-9" d="M181.07,524.8H155.84a1.59,1.59,0,0,0-1.59,1.59v7.25a1.59,1.59,0,0,0,1.59,1.59h25.23a1.59,1.59,0,0,0,1.59-1.59v-7.25A1.59,1.59,0,0,0,181.07,524.8Z" transform="translate(-51.45 -192.71)"/><polygon class="cls-9" points="125.42 337.98 108.59 337.98 104.19 342.52 107.78 358.37 117 358.37 126.23 358.37 129.82 342.52 125.42 337.98"/><polygon class="cls-13" points="104.19 342.52 104.93 345.65 129.08 345.65 129.82 342.52 104.19 342.52"/><path class="cls-8" d="M143.68,433.45h1.66a.74.74,0,0,1,.73.74h0a.73.73,0,0,1-.73.73h-1.66a.73.73,0,0,1-.73-.73h0A.74.74,0,0,1,143.68,433.45Z" transform="translate(-51.45 -192.71)"/><path class="cls-8" d="M142.11,444.89H132.8a.74.74,0,0,0-.74.74h0a.74.74,0,0,0,.74.74h9.31a.74.74,0,0,0,.73-.74h0A.74.74,0,0,0,142.11,444.89Z" transform="translate(-51.45 -192.71)"/><path class="cls-8" d="M150.23,450.19H158a.73.73,0,0,1,.73.73h0a.74.74,0,0,1-.73.74h-7.81a.74.74,0,0,1-.73-.74h0A.73.73,0,0,1,150.23,450.19Z" transform="translate(-51.45 -192.71)"/><path class="cls-8" d="M155.78,460.16H158a.73.73,0,0,1,.73.73h0a.74.74,0,0,1-.73.74h-2.26a.74.74,0,0,1-.74-.74h0A.74.74,0,0,1,155.78,460.16Z" transform="translate(-51.45 -192.71)"/><path class="cls-8" d="M114.05,470.74h22.72a.74.74,0,0,1,.73.74h0a.74.74,0,0,1-.73.74H114.05a.74.74,0,0,1-.74-.74h0A.74.74,0,0,1,114.05,470.74Z" transform="translate(-51.45 -192.71)"/><path class="cls-8" d="M142.11,476H132.8a.74.74,0,0,0-.74.74h0a.74.74,0,0,0,.74.74h9.31a.74.74,0,0,0,.73-.74h0A.74.74,0,0,0,142.11,476Z" transform="translate(-51.45 -192.71)"/><path class="cls-8" d="M150.23,481.34H158a.73.73,0,0,1,.73.73h0a.74.74,0,0,1-.73.74h-7.81a.74.74,0,0,1-.73-.74h0A.73.73,0,0,1,150.23,481.34Z" transform="translate(-51.45 -192.71)"/><path class="cls-8" d="M155.78,491.31H158a.73.73,0,0,1,.73.73h0a.74.74,0,0,1-.73.74h-2.26A.74.74,0,0,1,155,492h0A.74.74,0,0,1,155.78,491.31Z" transform="translate(-51.45 -192.71)"/><path class="cls-8" d="M114.05,501.89h22.72a.74.74,0,0,1,.73.74h0a.74.74,0,0,1-.73.74H114.05a.74.74,0,0,1-.74-.74h0A.74.74,0,0,1,114.05,501.89Z" transform="translate(-51.45 -192.71)"/><path class="cls-18" d="M175.63,433.45h12a.74.74,0,0,1,.74.74h0a.74.74,0,0,1-.74.73h-12a.73.73,0,0,1-.73-.73h0A.74.74,0,0,1,175.63,433.45Z" transform="translate(-51.45 -192.71)"/><path class="cls-18" d="M130.78,438.43h23.43a.74.74,0,0,1,.73.74h0a.74.74,0,0,1-.73.74H130.78a.74.74,0,0,1-.74-.74h0A.74.74,0,0,1,130.78,438.43Z" transform="translate(-51.45 -192.71)"/><path class="cls-18" d="M158.24,438.43h-1a.74.74,0,0,0-.74.74h0a.74.74,0,0,0,.74.74h1a.74.74,0,0,0,.73-.74h0A.74.74,0,0,0,158.24,438.43Z" transform="translate(-51.45 -192.71)"/><path class="cls-18" d="M187.59,438.43H161.22a.74.74,0,0,0-.74.74h0a.74.74,0,0,0,.74.74h26.37a.74.74,0,0,0,.73-.74h0A.74.74,0,0,0,187.59,438.43Z" transform="translate(-51.45 -192.71)"/><path class="cls-18" d="M149.53,433.45h22.33a.74.74,0,0,1,.74.74h0a.74.74,0,0,1-.74.73H149.53a.74.74,0,0,1-.74-.73h0A.74.74,0,0,1,149.53,433.45Z" transform="translate(-51.45 -192.71)"/><path class="cls-18" d="M95.6,444.89h33.61a.74.74,0,0,1,.73.74h0a.74.74,0,0,1-.73.74H95.6a.74.74,0,0,1-.74-.74h0A.74.74,0,0,1,95.6,444.89Z" transform="translate(-51.45 -192.71)"/><path class="cls-18" d="M145.29,444.89H178.9a.74.74,0,0,1,.74.74h0a.74.74,0,0,1-.74.74H145.29a.74.74,0,0,1-.73-.74h0A.74.74,0,0,1,145.29,444.89Z" transform="translate(-51.45 -192.71)"/><path class="cls-18" d="M162.53,450.19h12.14a.73.73,0,0,1,.73.73h0a.74.74,0,0,1-.73.74H162.53a.74.74,0,0,1-.73-.74h0A.73.73,0,0,1,162.53,450.19Z" transform="translate(-51.45 -192.71)"/><path class="cls-18" d="M93.18,450.19h53.06a.74.74,0,0,1,.74.73h0a.74.74,0,0,1-.74.74H93.18a.74.74,0,0,1-.74-.74h0A.74.74,0,0,1,93.18,450.19Z" transform="translate(-51.45 -192.71)"/><path class="cls-18" d="M121.61,455.23h53.06a.74.74,0,0,1,.73.74h0a.74.74,0,0,1-.73.74H121.61a.74.74,0,0,1-.74-.74h0A.74.74,0,0,1,121.61,455.23Z" transform="translate(-51.45 -192.71)"/><path class="cls-18" d="M162.53,460.16h12.14a.73.73,0,0,1,.73.73h0a.74.74,0,0,1-.73.74H162.53a.74.74,0,0,1-.73-.74h0A.73.73,0,0,1,162.53,460.16Z" transform="translate(-51.45 -192.71)"/><path class="cls-18" d="M114.05,460.16h37.44a.73.73,0,0,1,.73.73h0a.74.74,0,0,1-.73.74H114.05a.74.74,0,0,1-.74-.74h0A.74.74,0,0,1,114.05,460.16Z" transform="translate(-51.45 -192.71)"/><path class="cls-18" d="M121.61,465.45h58.7a.74.74,0,0,1,.74.74h0a.74.74,0,0,1-.74.74h-58.7a.74.74,0,0,1-.74-.74h0A.74.74,0,0,1,121.61,465.45Z" transform="translate(-51.45 -192.71)"/><path class="cls-18" d="M142.07,470.74h38.24a.74.74,0,0,1,.74.74h0a.74.74,0,0,1-.74.74H142.07a.74.74,0,0,1-.74-.74h0A.74.74,0,0,1,142.07,470.74Z" transform="translate(-51.45 -192.71)"/><path class="cls-18" d="M95.6,476h33.61a.74.74,0,0,1,.73.74h0a.74.74,0,0,1-.73.74H95.6a.74.74,0,0,1-.74-.74h0A.74.74,0,0,1,95.6,476Z" transform="translate(-51.45 -192.71)"/><path class="cls-18" d="M145.29,476H178.9a.74.74,0,0,1,.74.74h0a.74.74,0,0,1-.74.74H145.29a.74.74,0,0,1-.73-.74h0A.74.74,0,0,1,145.29,476Z" transform="translate(-51.45 -192.71)"/><path class="cls-18" d="M162.53,481.34h12.14a.73.73,0,0,1,.73.73h0a.74.74,0,0,1-.73.74H162.53a.74.74,0,0,1-.73-.74h0A.73.73,0,0,1,162.53,481.34Z" transform="translate(-51.45 -192.71)"/><path class="cls-18" d="M93.18,481.34h53.06a.74.74,0,0,1,.74.73h0a.74.74,0,0,1-.74.74H93.18a.74.74,0,0,1-.74-.74h0A.74.74,0,0,1,93.18,481.34Z" transform="translate(-51.45 -192.71)"/><path class="cls-18" d="M121.61,486.38h53.06a.74.74,0,0,1,.73.74h0a.74.74,0,0,1-.73.74H121.61a.74.74,0,0,1-.74-.74h0A.74.74,0,0,1,121.61,486.38Z" transform="translate(-51.45 -192.71)"/><path class="cls-18" d="M162.53,491.31h12.14a.73.73,0,0,1,.73.73h0a.74.74,0,0,1-.73.74H162.53a.74.74,0,0,1-.73-.74h0A.73.73,0,0,1,162.53,491.31Z" transform="translate(-51.45 -192.71)"/><path class="cls-18" d="M114.05,491.31h37.44a.73.73,0,0,1,.73.73h0a.74.74,0,0,1-.73.74H114.05a.74.74,0,0,1-.74-.74h0A.74.74,0,0,1,114.05,491.31Z" transform="translate(-51.45 -192.71)"/><path class="cls-18" d="M121.61,496.6h58.7a.74.74,0,0,1,.74.74h0a.74.74,0,0,1-.74.74h-58.7a.74.74,0,0,1-.74-.74h0A.74.74,0,0,1,121.61,496.6Z" transform="translate(-51.45 -192.71)"/><path class="cls-18" d="M142.07,501.89h38.24a.74.74,0,0,1,.74.74h0a.74.74,0,0,1-.74.74H142.07a.74.74,0,0,1-.74-.74h0A.74.74,0,0,1,142.07,501.89Z" transform="translate(-51.45 -192.71)"/><path class="cls-15" d="M331.45,233h46a6.11,6.11,0,0,1,6.07,6.1v37.48a.68.68,0,0,1-1.16.49L372,266.7H331.45a6.1,6.1,0,0,1-6.07-6.1V239.14A6.11,6.11,0,0,1,331.45,233Z" transform="translate(-51.45 -192.71)"/><path class="cls-2" d="M342.42,255.77H339.9V250.6h-4.72v5.17h-2.53v-12h2.53v4.7h4.72v-4.7h2.52v12Zm7.62,0h-2.53V245.9h-3.24v-2.12h9v2.12H350v9.87Zm10.13,0-2.87-9.41h-.08c.11,1.92.16,3.2.16,3.83v5.58h-2.26v-12h3.44l2.83,9.17h.05l3-9.17h3.45v12h-2.36V250.1c0-.27,0-.58,0-.93s.05-1.28.11-2.79h-.07l-3.08,9.39Zm10.71,0v-12h2.52v9.89h4.84v2.1Z" transform="translate(-51.45 -192.71)"/><path class="cls-2" d="M137.51,324a2.72,2.72,0,1,0-2.7-2.72A2.72,2.72,0,0,0,137.51,324Z" transform="translate(-51.45 -192.71)"/><path class="cls-2" d="M373.77,394.9a2.72,2.72,0,1,0-2.71-2.72A2.71,2.71,0,0,0,373.77,394.9Z" transform="translate(-51.45 -192.71)"/><path class="cls-2" d="M436.4,281.75a2.72,2.72,0,1,0-2.71-2.72A2.71,2.71,0,0,0,436.4,281.75Z" transform="translate(-51.45 -192.71)"/><path class="cls-2" d="M483.17,534.36a2.72,2.72,0,1,0-2.7-2.72A2.72,2.72,0,0,0,483.17,534.36Z" transform="translate(-51.45 -192.71)"/><path class="cls-2" d="M113.73,535.15a2.72,2.72,0,1,0-2.71-2.72A2.71,2.71,0,0,0,113.73,535.15Z" transform="translate(-51.45 -192.71)"/><path class="cls-2" d="M251.67,219.67a1.24,1.24,0,0,0,0-2.47,1.24,1.24,0,0,0,0,2.47Z" transform="translate(-51.45 -192.71)"/><path class="cls-2" d="M167.64,293a1.24,1.24,0,1,0-1.23-1.23A1.24,1.24,0,0,0,167.64,293Z" transform="translate(-51.45 -192.71)"/><path class="cls-6" d="M367.78,299.12h75.63a3.94,3.94,0,0,1,3.92,3.94v58a3.94,3.94,0,0,1-3.92,3.94H367.78a3.94,3.94,0,0,1-3.92-3.94v-58A3.94,3.94,0,0,1,367.78,299.12Z" transform="translate(-51.45 -192.71)"/><path class="cls-2" d="M365.75,297h75.63A3.94,3.94,0,0,1,445.3,301v58a4,4,0,0,1-3.92,3.95H365.75a4,4,0,0,1-3.92-3.95V301A3.94,3.94,0,0,1,365.75,297Z" transform="translate(-51.45 -192.71)"/><path class="cls-19" d="M365.75,297h75.63A3.94,3.94,0,0,1,445.3,301v5.44a1.1,1.1,0,0,1-1.1,1.1H362.93a1.1,1.1,0,0,1-1.1-1.1V301A3.94,3.94,0,0,1,365.75,297Z" transform="translate(-51.45 -192.71)"/><path class="cls-10" d="M368.18,311.9h21.2a.82.82,0,0,1,.81.82h0a.82.82,0,0,1-.81.82h-21.2a.82.82,0,0,1-.82-.82h0A.82.82,0,0,1,368.18,311.9Z" transform="translate(-51.45 -192.71)"/><path class="cls-10" d="M389.38,315.51h-9.47a.82.82,0,0,0-.82.82h0a.82.82,0,0,0,.82.82h9.47a.82.82,0,0,0,.81-.82h0A.82.82,0,0,0,389.38,315.51Z" transform="translate(-51.45 -192.71)"/><path class="cls-10" d="M375.77,315.51h.76a.82.82,0,0,1,.81.82h0a.82.82,0,0,1-.81.82h-.76a.82.82,0,0,1-.81-.82h0A.82.82,0,0,1,375.77,315.51Z" transform="translate(-51.45 -192.71)"/><path class="cls-10" d="M368.18,315.51h4.74a.82.82,0,0,1,.82.82h0a.82.82,0,0,1-.82.82h-4.74a.82.82,0,0,1-.82-.82h0A.82.82,0,0,1,368.18,315.51Z" transform="translate(-51.45 -192.71)"/><rect class="cls-20" x="315.91" y="127.09" width="22.83" height="1.64" rx="0.82"/><path class="cls-10" d="M368.18,323.41h9.47a.82.82,0,0,1,.81.82h0a.82.82,0,0,1-.81.82h-9.47a.82.82,0,0,1-.82-.82h0A.82.82,0,0,1,368.18,323.41Z" transform="translate(-51.45 -192.71)"/><path class="cls-10" d="M381.78,323.41H381a.82.82,0,0,0-.82.82h0a.82.82,0,0,0,.82.82h.75a.82.82,0,0,0,.81-.82h0A.82.82,0,0,0,381.78,323.41Z" transform="translate(-51.45 -192.71)"/><path class="cls-10" d="M389.38,323.41h-4.75a.82.82,0,0,0-.81.82h0a.82.82,0,0,0,.81.82h4.75a.82.82,0,0,0,.81-.82h0A.82.82,0,0,0,389.38,323.41Z" transform="translate(-51.45 -192.71)"/><path class="cls-10" d="M368.18,327.7h21.2a.81.81,0,0,1,.81.81h0a.81.81,0,0,1-.81.81h-21.2a.82.82,0,0,1-.82-.81h0A.82.82,0,0,1,368.18,327.7Z" transform="translate(-51.45 -192.71)"/><path class="cls-10" d="M389.38,331.31h-9.47a.82.82,0,0,0-.82.82h0a.82.82,0,0,0,.82.82h9.47a.82.82,0,0,0,.81-.82h0A.82.82,0,0,0,389.38,331.31Z" transform="translate(-51.45 -192.71)"/><path class="cls-10" d="M375.77,331.31h.76a.82.82,0,0,1,.81.82h0a.82.82,0,0,1-.81.82h-.76a.82.82,0,0,1-.81-.82h0A.82.82,0,0,1,375.77,331.31Z" transform="translate(-51.45 -192.71)"/><path class="cls-10" d="M368.18,331.31h4.74a.82.82,0,0,1,.82.82h0a.82.82,0,0,1-.82.82h-4.74a.82.82,0,0,1-.82-.82h0A.82.82,0,0,1,368.18,331.31Z" transform="translate(-51.45 -192.71)"/><path class="cls-10" d="M368.18,335.59h21.2a.82.82,0,0,1,.81.82h0a.82.82,0,0,1-.81.82h-21.2a.82.82,0,0,1-.82-.82h0A.82.82,0,0,1,368.18,335.59Z" transform="translate(-51.45 -192.71)"/><path class="cls-10" d="M368.18,339.21h9.47a.81.81,0,0,1,.81.82h0a.81.81,0,0,1-.81.81h-9.47a.82.82,0,0,1-.82-.81h0A.82.82,0,0,1,368.18,339.21Z" transform="translate(-51.45 -192.71)"/><path class="cls-10" d="M388.62,339.21h.76a.82.82,0,0,1,.81.82h0a.81.81,0,0,1-.81.81h-.76a.81.81,0,0,1-.81-.81h0A.82.82,0,0,1,388.62,339.21Z" transform="translate(-51.45 -192.71)"/><path class="cls-10" d="M381,339.21h4.74a.81.81,0,0,1,.81.82h0a.81.81,0,0,1-.81.81H381a.82.82,0,0,1-.82-.81h0A.82.82,0,0,1,381,339.21Z" transform="translate(-51.45 -192.71)"/><rect class="cls-20" x="315.91" y="150.78" width="22.83" height="1.64" rx="0.82"/><path class="cls-20" d="M320.86,154.4h9.47a.81.81,0,0,1,.81.81v0a.81.81,0,0,1-.81.81h-9.47a.82.82,0,0,1-.82-.82v0A.82.82,0,0,1,320.86,154.4Z"/><path class="cls-20" d="M316.73,154.4h.75a.81.81,0,0,1,.81.81v0a.81.81,0,0,1-.81.81h-.75a.82.82,0,0,1-.82-.82v0A.82.82,0,0,1,316.73,154.4Z"/><rect class="cls-20" x="332.37" y="154.4" width="6.37" height="1.64" rx="0.81"/><rect class="cls-20" x="315.91" y="158.68" width="22.83" height="1.64" rx="0.82"/><path class="cls-10" d="M368.18,355h9.47a.82.82,0,0,1,.81.82h0a.82.82,0,0,1-.81.82h-9.47a.82.82,0,0,1-.82-.82h0A.82.82,0,0,1,368.18,355Z" transform="translate(-51.45 -192.71)"/><path class="cls-10" d="M381.78,355H381a.82.82,0,0,0-.82.82h0a.82.82,0,0,0,.82.82h.75a.82.82,0,0,0,.81-.82h0A.82.82,0,0,0,381.78,355Z" transform="translate(-51.45 -192.71)"/><path class="cls-10" d="M389.38,355h-4.75a.82.82,0,0,0-.81.82h0a.82.82,0,0,0,.81.82h4.75a.82.82,0,0,0,.81-.82h0A.82.82,0,0,0,389.38,355Z" transform="translate(-51.45 -192.71)"/><path class="cls-8" d="M402.94,311.9h35.87a.82.82,0,0,1,.81.82h0a.82.82,0,0,1-.81.82H402.94a.82.82,0,0,1-.81-.82h0A.82.82,0,0,1,402.94,311.9Z" transform="translate(-51.45 -192.71)"/><path class="cls-8" d="M438.81,315.51h-16.6a.82.82,0,0,0-.82.82h0a.82.82,0,0,0,.82.82h16.6a.82.82,0,0,0,.81-.82h0A.82.82,0,0,0,438.81,315.51Z" transform="translate(-51.45 -192.71)"/><path class="cls-8" d="M415.42,315.51h2.28a.82.82,0,0,1,.82.82h0a.82.82,0,0,1-.82.82h-2.28a.82.82,0,0,1-.81-.82h0A.82.82,0,0,1,415.42,315.51Z" transform="translate(-51.45 -192.71)"/><path class="cls-8" d="M402.94,315.51h8.84a.82.82,0,0,1,.81.82h0a.82.82,0,0,1-.81.82h-8.84a.82.82,0,0,1-.81-.82h0A.82.82,0,0,1,402.94,315.51Z" transform="translate(-51.45 -192.71)"/><path class="cls-8" d="M402.94,319.8h35.87a.82.82,0,0,1,.81.82h0a.82.82,0,0,1-.81.82H402.94a.82.82,0,0,1-.81-.82h0A.82.82,0,0,1,402.94,319.8Z" transform="translate(-51.45 -192.71)"/><path class="cls-8" d="M402.94,323.41h16.6a.82.82,0,0,1,.82.82h0a.82.82,0,0,1-.82.82h-16.6a.82.82,0,0,1-.81-.82h0A.82.82,0,0,1,402.94,323.41Z" transform="translate(-51.45 -192.71)"/><path class="cls-8" d="M426.33,323.41h-2.28a.82.82,0,0,0-.82.82h0a.82.82,0,0,0,.82.82h2.28a.82.82,0,0,0,.81-.82h0A.82.82,0,0,0,426.33,323.41Z" transform="translate(-51.45 -192.71)"/><path class="cls-8" d="M438.81,323.41H430a.82.82,0,0,0-.82.82h0a.82.82,0,0,0,.82.82h8.84a.82.82,0,0,0,.81-.82h0A.82.82,0,0,0,438.81,323.41Z" transform="translate(-51.45 -192.71)"/><path class="cls-8" d="M402.94,327.7h35.87a.81.81,0,0,1,.81.81h0a.81.81,0,0,1-.81.81H402.94a.81.81,0,0,1-.81-.81h0A.81.81,0,0,1,402.94,327.7Z" transform="translate(-51.45 -192.71)"/><path class="cls-8" d="M438.81,331.31h-16.6a.82.82,0,0,0-.82.82h0a.82.82,0,0,0,.82.82h16.6a.82.82,0,0,0,.81-.82h0A.82.82,0,0,0,438.81,331.31Z" transform="translate(-51.45 -192.71)"/><path class="cls-8" d="M415.42,331.31h2.28a.82.82,0,0,1,.82.82h0a.82.82,0,0,1-.82.82h-2.28a.82.82,0,0,1-.81-.82h0A.82.82,0,0,1,415.42,331.31Z" transform="translate(-51.45 -192.71)"/><path class="cls-8" d="M402.94,331.31h8.84a.82.82,0,0,1,.81.82h0a.82.82,0,0,1-.81.82h-8.84a.82.82,0,0,1-.81-.82h0A.82.82,0,0,1,402.94,331.31Z" transform="translate(-51.45 -192.71)"/><path class="cls-8" d="M402.94,335.59h35.87a.82.82,0,0,1,.81.82h0a.82.82,0,0,1-.81.82H402.94a.82.82,0,0,1-.81-.82h0A.82.82,0,0,1,402.94,335.59Z" transform="translate(-51.45 -192.71)"/><path class="cls-8" d="M402.94,339.21h16.6a.82.82,0,0,1,.82.82h0a.82.82,0,0,1-.82.81h-16.6a.81.81,0,0,1-.81-.81h0A.81.81,0,0,1,402.94,339.21Z" transform="translate(-51.45 -192.71)"/><path class="cls-8" d="M436.53,339.21h2.28a.81.81,0,0,1,.81.82h0a.81.81,0,0,1-.81.81h-2.28a.82.82,0,0,1-.82-.81h0A.82.82,0,0,1,436.53,339.21Z" transform="translate(-51.45 -192.71)"/><path class="cls-8" d="M424.05,339.21h8.83a.82.82,0,0,1,.82.82h0a.82.82,0,0,1-.82.81h-8.83a.82.82,0,0,1-.82-.81h0A.82.82,0,0,1,424.05,339.21Z" transform="translate(-51.45 -192.71)"/><rect class="cls-21" x="350.68" y="150.78" width="37.49" height="1.64" rx="0.82"/><path class="cls-8" d="M426.33,347.11h-16.6a.82.82,0,0,0-.82.81h0a.82.82,0,0,0,.82.82h16.6a.82.82,0,0,0,.81-.82h0A.81.81,0,0,0,426.33,347.11Z" transform="translate(-51.45 -192.71)"/><path class="cls-21" d="M351.5,154.4h2.28a.81.81,0,0,1,.81.81v0a.81.81,0,0,1-.81.81H351.5a.82.82,0,0,1-.82-.82v0A.82.82,0,0,1,351.5,154.4Z"/><path class="cls-21" d="M378.52,154.4h8.84a.81.81,0,0,1,.81.81v0a.81.81,0,0,1-.81.81h-8.83a.82.82,0,0,1-.82-.82v0a.82.82,0,0,1,.82-.82Z"/><rect class="cls-21" x="350.68" y="158.68" width="37.49" height="1.64" rx="0.82"/><path class="cls-8" d="M402.94,355h16.6a.82.82,0,0,1,.82.82h0a.82.82,0,0,1-.82.82h-16.6a.82.82,0,0,1-.81-.82h0A.82.82,0,0,1,402.94,355Z" transform="translate(-51.45 -192.71)"/><path class="cls-8" d="M426.33,355h-2.28a.82.82,0,0,0-.82.82h0a.82.82,0,0,0,.82.82h2.28a.82.82,0,0,0,.81-.82h0A.82.82,0,0,0,426.33,355Z" transform="translate(-51.45 -192.71)"/><path class="cls-8" d="M438.81,355H430a.82.82,0,0,0-.82.82h0a.82.82,0,0,0,.82.82h8.84a.82.82,0,0,0,.81-.82h0A.82.82,0,0,0,438.81,355Z" transform="translate(-51.45 -192.71)"/><path class="cls-2" d="M425.17,304.15a1.89,1.89,0,1,0-1.88-1.89A1.89,1.89,0,0,0,425.17,304.15Z" transform="translate(-51.45 -192.71)"/><path class="cls-2" d="M432,304.15a1.89,1.89,0,1,0-1.88-1.89A1.89,1.89,0,0,0,432,304.15Z" transform="translate(-51.45 -192.71)"/><path class="cls-2" d="M438.75,304.15a1.89,1.89,0,1,0-1.88-1.89A1.89,1.89,0,0,0,438.75,304.15Z" transform="translate(-51.45 -192.71)"/><path class="cls-2" d="M358.7,287.41a1.24,1.24,0,1,0-1.23-1.24A1.24,1.24,0,0,0,358.7,287.41Z" transform="translate(-51.45 -192.71)"/><path class="cls-2" d="M217.94,354.7a1.24,1.24,0,1,0-1.23-1.24A1.23,1.23,0,0,0,217.94,354.7Z" transform="translate(-51.45 -192.71)"/><path class="cls-2" d="M376.58,412.07a1.24,1.24,0,1,0-1.23-1.23A1.23,1.23,0,0,0,376.58,412.07Z" transform="translate(-51.45 -192.71)"/><path class="cls-2" d="M463,500.53a1.24,1.24,0,0,0,0-2.47,1.24,1.24,0,0,0,0,2.47Z" transform="translate(-51.45 -192.71)"/><path class="cls-2" d="M137.16,518.06a1.24,1.24,0,1,0-1.24-1.24A1.24,1.24,0,0,0,137.16,518.06Z" transform="translate(-51.45 -192.71)"/><path class="cls-5" d="M239.68,407.45s-5.52,2.62-11.68,9.84c-4.39,5.16-22.6,53.9-33.59,84.62-2.72,7.6-13.36,34.11,7.8,49.17l4.56,4.1c7-14.62,24.54-53.51,24.54-53.51Z" transform="translate(-51.45 -192.71)"/><path class="cls-22" d="M239.68,407.45s-5.52,2.62-11.68,9.84a31.43,31.43,0,0,0-3.07,5.56c1.49,7.62,1.26,18-2.78,32.16-12.25,42.86-6.62,66.1-1.05,68.54l.24.1c5.41-11.86,10-22,10-22l8.37-94.22ZM190,517.39c-.31,12.52,10,23.29,22.1,26.4-2.06,4.45-3.92,8.42-5.34,11.39l-4.56-4.1C189.21,541.82,188.21,528.24,190,517.39Z" transform="translate(-51.45 -192.71)"/><path class="cls-10" d="M343.74,329.43s1.44,26,10.74,42.63c0,0,3,4-.1,7.65s-22.93,20-57.42,24.7-68.16-23.46-69-27.16,10.56-30.13,9.66-52.61Z" transform="translate(-51.45 -192.71)"/><path class="cls-12" d="M343.74,329.43a141.73,141.73,0,0,0,4.95,28.31c-5.88,4.88-18.2,17.5-16.67,36.6A124.1,124.1,0,0,1,297,404.41c-15.76,2.17-31.35-2.54-43.71-8.65a24.74,24.74,0,0,0-.24-18.58c-5.28-13.17-13.41-19-19.65-21.51,2.42-9.43,4.64-20.65,4.22-31Z" transform="translate(-51.45 -192.71)"/><path class="cls-5" d="M348.44,407.45s5.53,2.62,11.68,9.84c4.39,5.16,22.61,53.9,33.6,84.62,2.72,7.6,13.36,34.11-7.8,49.17l-4.56,4.1c-7-14.62-24.55-53.51-24.55-53.51Z" transform="translate(-51.45 -192.71)"/><path class="cls-22" d="M348.44,407.45s5.53,2.62,11.68,9.84a34.33,34.33,0,0,1,3.36,6.17c-1.37,7.56-1,17.79,2.89,31.55,12.25,42.86,6.62,66.1,1.06,68.54l-.58.25c-5.44-11.92-10-22.13-10-22.13l-8.37-94.22Zm50,112.27c-.93,11.63-10.88,21.35-22.4,24.16,2.05,4.41,3.89,8.35,5.31,11.3l4.56-4.1C398,542.47,399.71,530.14,398.45,519.72Z" transform="translate(-51.45 -192.71)"/><path class="cls-5" d="M294,393s52.21,12.42,54.62,14.67S361.88,464,361.9,469.28c0,4.88-12.54,71.86-14.59,90.15H240.63c-2-18.29-14.63-85.27-14.6-90.15,0-5.28,10.91-59.34,13.31-61.61S294,393,294,393Z" transform="translate(-51.45 -192.71)"/><path class="cls-22" d="M294,393s52.21,12.42,54.62,14.67S361.88,464,361.9,469.28c0,4.48-10.56,61.29-13.89,84.72-37.91,2.28-59.62,19.56-39.65,13.79s17.83-44.08,17.83-52.63-20.32-26.55-8.72-34.88,26.17-52.11,22.2-57.09-40.43-22.11-40.43-22.11-11.59,3.85-11.37-6.61Z" transform="translate(-51.45 -192.71)"/><path class="cls-2" d="M294,393s14.58,3.34,29,6.86A29.48,29.48,0,0,1,294.46,424h-.35a29.44,29.44,0,0,1-29.2-24.1C279.34,396.34,294,393,294,393Z" transform="translate(-51.45 -192.71)"/><path class="cls-23" d="M294,393s14.58,3.34,29,6.86a29.36,29.36,0,0,1-4.31,10.75c-9.85-5.05-19.4-9.53-19.4-9.53s-11.59,3.85-11.37-6.61a.14.14,0,0,1,0-.06Z" transform="translate(-51.45 -192.71)"/><path class="cls-24" d="M293.28,353.69h.36a18.75,18.75,0,0,1,18.88,18.54l.26,22a18.79,18.79,0,0,1-18.46,19H294a18.78,18.78,0,0,1-18.89-18.55l-.25-22.05A18.77,18.77,0,0,1,293.28,353.69Z" transform="translate(-51.45 -192.71)"/><path class="cls-24" d="M252.6,337.5c-.29,0-.57.09-.85.15h0a11.55,11.55,0,1,0,9.61,2.33c.29,3.41-.24,7.64-4.58,8.07l.12-6.68C256.94,338.67,254.44,337.43,252.6,337.5Z" transform="translate(-51.45 -192.71)"/><path class="cls-24" d="M335.69,337.5l.84.15h0a11.53,11.53,0,1,1-9.61,2.33c-.29,3.41.25,7.64,4.58,8.07l-.12-6.68C331.34,338.67,333.84,337.43,335.69,337.5Z" transform="translate(-51.45 -192.71)"/><path class="cls-25" d="M294.14,279.7h0a39.64,39.64,0,0,0-39.42,39.62v36A39.64,39.64,0,0,0,294.14,395h0a39.64,39.64,0,0,0,39.42-39.62v-36A39.64,39.64,0,0,0,294.14,279.7Z" transform="translate(-51.45 -192.71)"/><path class="cls-26" d="M286.93,348.41a12.37,12.37,0,0,0-3.64-6l-16.47,18.51a12.31,12.31,0,0,0,6.36,3l13.75-15.45Zm-5.12-7.19-16.3,18.32a12.41,12.41,0,0,1-1.84-3l15-16.84A12.77,12.77,0,0,1,281.81,341.22Z" transform="translate(-51.45 -192.71)"/><path class="cls-26" d="M320.23,340.41l-15.84,17.8a12.14,12.14,0,0,1-1.49-3.39l13.82-15.52a12,12,0,0,1,3.51,1.11Zm5.95,6.27a12.48,12.48,0,0,0-4.3-5.3l-16.35,18.37a12.28,12.28,0,0,0,5.71,3.71Z" transform="translate(-51.45 -192.71)"/><path class="cls-27" d="M303.9,393.74a39.75,39.75,0,0,0,29.66-38.39v-36a39.64,39.64,0,0,0-13.88-30.11c-25.89,2.74-53,5.1-53,5.1S251.82,322.2,260,328.08l1.36-1.55h50.8c7.65,0,13.6,1.79,13.6,11.17V365C325.78,371,317.67,389.06,303.9,393.74Z" transform="translate(-51.45 -192.71)"/><path class="cls-24" d="M316.49,357.32a5.21,5.21,0,1,0,5.08,5.3A5.19,5.19,0,0,0,316.49,357.32Z" transform="translate(-51.45 -192.71)"/><path class="cls-24" d="M271.9,356.46a5.21,5.21,0,1,0,5.09,5.31A5.21,5.21,0,0,0,271.9,356.46Z" transform="translate(-51.45 -192.71)"/><path class="cls-12" d="M269.67,336c3-1.49,6.82-1.81,9.73,0a1.29,1.29,0,0,0,1.32-2.21c-3.63-2.19-8.49-1.93-12.19-.05a1.29,1.29,0,0,0-.57,1.73A1.27,1.27,0,0,0,269.67,336Z" transform="translate(-51.45 -192.71)"/><path class="cls-12" d="M270.82,350.94a3.79,3.79,0,0,1,1.1-2.68,3.77,3.77,0,0,1,5.32,0,3.8,3.8,0,0,1,1.11,2.68,1.29,1.29,0,1,0,2.57,0,6.34,6.34,0,1,0-12.67,0,1.29,1.29,0,1,0,2.57,0Z" transform="translate(-51.45 -192.71)"/><path class="cls-12" d="M319,350.94a1.29,1.29,0,1,0,2.57,0,6.41,6.41,0,0,0-1.86-4.51,6.33,6.33,0,0,0-9,0,6.41,6.41,0,0,0-1.86,4.51,1.29,1.29,0,1,0,2.57,0,3.8,3.8,0,0,1,1.11-2.68,3.77,3.77,0,0,1,5.32,0A3.8,3.8,0,0,1,319,350.94Z" transform="translate(-51.45 -192.71)"/><path class="cls-12" d="M320.1,336a1.29,1.29,0,0,0,1.14-2.31c-3.67-1.89-8.58-2.13-12.19.05a1.29,1.29,0,0,0,1.32,2.21C313.29,334.15,317.14,334.47,320.1,336Z" transform="translate(-51.45 -192.71)"/><path class="cls-8" d="M220.63,527.7l-2,1.93,28.78,15.44L241,555.2H208.15s-7.5-3.35-6.9-6.82S209,525.55,220.63,527.7Z" transform="translate(-51.45 -192.71)"/><path class="cls-22" d="M236.38,539.16l11,5.91L241,555.2H208.15s-7.5-3.35-6.9-6.82a36.09,36.09,0,0,1,2.93-7.86,28.75,28.75,0,0,0,20.39,3.59C230.3,542.87,234,541.05,236.38,539.16Z" transform="translate(-51.45 -192.71)"/><path class="cls-27" d="M259.54,544.36s-5.54-3.73-8.52-5.52a7.79,7.79,0,0,0-8,.08,125.56,125.56,0,0,0-11.41,9.17c-1.28,1.36,6.13,4.36,6.89,4.36S259.54,544.36,259.54,544.36Z" transform="translate(-51.45 -192.71)"/><path class="cls-8" d="M367.49,527.7l2,1.93-28.79,15.44,6.44,10.13H380s7.49-3.35,6.9-6.82S379.15,525.55,367.49,527.7Z" transform="translate(-51.45 -192.71)"/><path class="cls-22" d="M352,539l-11.27,6,6.44,10.13H380s7.49-3.35,6.9-6.82A35.71,35.71,0,0,0,384,540.7,28.67,28.67,0,0,1,364,544.11C358.09,542.84,354.36,541,352,539Z" transform="translate(-51.45 -192.71)"/><path class="cls-27" d="M328.59,544.36s5.53-3.73,8.51-5.52a7.81,7.81,0,0,1,8,.08,128.38,128.38,0,0,1,11.41,9.17c1.28,1.36-6.13,4.36-6.9,4.36S328.59,544.36,328.59,544.36Z" transform="translate(-51.45 -192.71)"/><path class="cls-10" d="M220.14,557.24H367.79a5,5,0,0,0,5-5h0a5,5,0,0,0-5-5H220.14a5,5,0,0,0-5,5h0A5,5,0,0,0,220.14,557.24Z" transform="translate(-51.45 -192.71)"/><path class="cls-10" d="M329.41,338.06v5.1c0,2.46,2.27,5.21,4.15,5.21v-5.58s.79-4.12,5.85-4.12c15.51-17.93,13.47-46.39-3.1-61.14s-52.12-15.7-58.34-13.62-12.6,12.67-12.6,12.67-5.27-4.73-10.17-2.27-21.26,33.48-21.26,41.24,14.93,23.12,14.93,23.12c5.06,0,5.85,4.12,5.85,4.12v5.58c1.88,0,4.15-2.75,4.15-5.21v-5.1s4.41-7,4.41-14.4H273.8a2.68,2.68,0,0,0,2.23-2.18c.23-1.08.91-8.23,1.13-9.93s.79-2.56,1.13-2.1.57,6.35,1.13,10.16,3.08,4,3.16,4.05h44.21S327.14,332.65,329.41,338.06Z" transform="translate(-51.45 -192.71)"/><path class="cls-19" d="M347.35,294.24A40.49,40.49,0,0,0,337.83,279c-10.77,12.69-37.27,34.57-68.54-7.88-.62.77-1.19,1.52-1.69,2.2,3.82,8.8,11.46,21.73,25.44,29.79C312.76,314.45,338,309.57,347.35,294.24Z" transform="translate(-51.45 -192.71)"/><path class="cls-12" d="M329.41,338.06v5.11c0,2.45,2.27,5.2,4.15,5.2v-5.58s.79-4.12,5.85-4.12c9.63-11.13,12.49-26.32,9.32-39.77-1.24,6.56-6.2,19.31-26.16,19.31-26.86,0-42.76-14.19-44.39-15.69a1.73,1.73,0,0,0-2.78.35s-9.16,14-25,9.76c-6.66-1.79-9.5-7.7-10.56-13.93-3.39,7.11-5.93,13.79-5.93,16.85,0,7.75,14.93,23.12,14.93,23.12,5.06,0,5.85,4.12,5.85,4.12v5.58c1.88,0,4.15-2.75,4.15-5.2v-5.11s4.41-7,4.41-14.4H273.8a2.68,2.68,0,0,0,2.23-2.18c.23-1.08.91-8.23,1.13-9.93s.79-2.56,1.13-2.1.57,6.35,1.13,10.16,3.08,4,3.16,4.05h44.21S327.14,332.65,329.41,338.06Z" transform="translate(-51.45 -192.71)"/><path class="cls-12" d="M305.74,367.21a11.2,11.2,0,1,1-22.4-.42h0a2,2,0,0,1,2-1.91l18.5.35a1.94,1.94,0,0,1,1.89,2Z" transform="translate(-51.45 -192.71)"/><path class="cls-28" d="M301.41,375.89a11.16,11.16,0,0,1-13,.55,7,7,0,0,1,6.48-4A7.08,7.08,0,0,1,301.41,375.89Z" transform="translate(-51.45 -192.71)"/><path class="cls-2" d="M286,364.89l17.38.33c.24,1.93-.69,3.87-2,4.27-1.58.48-14.15-.08-15-1.09C285.91,367.91,285.88,366.36,286,364.89Z" transform="translate(-51.45 -192.71)"/><path class="cls-29" d="M291.07,357.27s-1.54,2.83-1.05,4.33,2.59.71,2.81-.61a10.78,10.78,0,0,0-.57-4.11C292.11,356.59,291.45,356.48,291.07,357.27Z" transform="translate(-51.45 -192.71)"/><rect class="cls-30" x="233.25" y="325.16" width="20.31" height="31.59"/><path class="cls-10" d="M249.66,557.57h88.61a6.49,6.49,0,0,0,6.46-6.49h0a6.5,6.5,0,0,0-6.46-6.5H249.66a6.5,6.5,0,0,0-6.46,6.5h0A6.5,6.5,0,0,0,249.66,557.57Z" transform="translate(-51.45 -192.71)"/><path class="cls-31" d="M210.14,432.19h98.19V534.82H223a7.71,7.71,0,0,1-7.39-6.6l-11.23-89.43A5.69,5.69,0,0,1,210.14,432.19Z" transform="translate(-51.45 -192.71)"/><path class="cls-32" d="M210.14,432.19h98.19V534.82H223a7.71,7.71,0,0,1-7.39-6.6l-11.23-89.43A5.69,5.69,0,0,1,210.14,432.19Z" transform="translate(-51.45 -192.71)"/><path class="cls-31" d="M217.21,494.5h91.12v5.11H217.85a3,3,0,0,1-2.86-2.55h0A2.2,2.2,0,0,1,217.21,494.5Z" transform="translate(-51.45 -192.71)"/><path class="cls-31" d="M219.62,502.28h88.71v28.87H223.25a4.67,4.67,0,0,1-4.48-4l-2.62-20.88A3.45,3.45,0,0,1,219.62,502.28Z" transform="translate(-51.45 -192.71)"/><path class="cls-10" d="M224.64,453H246.3a2.86,2.86,0,0,1,2.74,2.45L253,487a2.1,2.1,0,0,1-2.12,2.44H229.22a2.86,2.86,0,0,1-2.74-2.44l-4-31.54A2.11,2.11,0,0,1,224.64,453Z" transform="translate(-51.45 -192.71)"/><path class="cls-31" d="M221.77,453h21.66a2.86,2.86,0,0,1,2.74,2.45l4,31.54a2.11,2.11,0,0,1-2.12,2.44H226.35a2.86,2.86,0,0,1-2.74-2.44l-4-31.54A2.11,2.11,0,0,1,221.77,453Z" transform="translate(-51.45 -192.71)"/><path class="cls-10" d="M225.8,471.21h0a1.5,1.5,0,0,1,1.45,1.3l1.38,10.95a1.13,1.13,0,0,1-1.13,1.3h0a1.53,1.53,0,0,1-1.46-1.3l-1.37-10.95A1.12,1.12,0,0,1,225.8,471.21Z" transform="translate(-51.45 -192.71)"/><path class="cls-10" d="M231.91,471.21h0a1.52,1.52,0,0,1,1.46,1.3l1.38,10.95a1.13,1.13,0,0,1-1.14,1.3h0a1.52,1.52,0,0,1-1.45-1.3l-1.38-10.95A1.12,1.12,0,0,1,231.91,471.21Z" transform="translate(-51.45 -192.71)"/><path class="cls-10" d="M238,471.21h0a1.52,1.52,0,0,1,1.46,1.3l1.37,10.95a1.13,1.13,0,0,1-1.13,1.3h0a1.53,1.53,0,0,1-1.46-1.3l-1.37-10.95A1.12,1.12,0,0,1,238,471.21Z" transform="translate(-51.45 -192.71)"/><path class="cls-10" d="M244.15,471.21h0a1.51,1.51,0,0,1,1.45,1.3L247,483.46a1.13,1.13,0,0,1-1.13,1.3h0a1.52,1.52,0,0,1-1.46-1.3L243,472.51A1.12,1.12,0,0,1,244.15,471.21Z" transform="translate(-51.45 -192.71)"/><path class="cls-31" d="M210.37,440.08h98v5.11H211a3,3,0,0,1-2.86-2.56h0A2.2,2.2,0,0,1,210.37,440.08Z" transform="translate(-51.45 -192.71)"/><path class="cls-10" d="M220.63,504.61h87.7v2H220.88a1.17,1.17,0,0,1-1.12-1h0a.86.86,0,0,1,.87-1ZM223.32,526h85v2H223.57a1.17,1.17,0,0,1-1.12-1h0a.87.87,0,0,1,.87-1Zm-.54-4.27h85.55v2H223a1.17,1.17,0,0,1-1.12-1h0a.86.86,0,0,1,.87-1Zm-.54-4.28h86.09v2H222.49a1.17,1.17,0,0,1-1.12-1h0a.87.87,0,0,1,.87-1Zm-.53-4.27h86.62v2H222a1.16,1.16,0,0,1-1.12-1h0a.86.86,0,0,1,.87-1Zm-.54-4.28h87.16v2H221.42a1.17,1.17,0,0,1-1.12-1h0A.86.86,0,0,1,221.17,508.88Z" transform="translate(-51.45 -192.71)"/><path class="cls-31" d="M258.16,450.63h50.17v38h-45.4a2.46,2.46,0,0,1-2.36-2.11l-4.25-33.76A1.83,1.83,0,0,1,258.16,450.63Z" transform="translate(-51.45 -192.71)"/><path class="cls-2" d="M261.76,455.52h30.05a1.3,1.3,0,0,1,1.25,1.11h0a1,1,0,0,1-1,1.1H262a1.29,1.29,0,0,1-1.24-1.1h0A1,1,0,0,1,261.76,455.52Z" transform="translate(-51.45 -192.71)"/><path class="cls-10" d="M262.45,461.07h45.88v2.22h-45.6a1.29,1.29,0,0,1-1.24-1.11h0A1,1,0,0,1,262.45,461.07Z" transform="translate(-51.45 -192.71)"/><path class="cls-10" d="M263.17,466.73h45.16V469H263.44a1.28,1.28,0,0,1-1.24-1.1h0A1,1,0,0,1,263.17,466.73Z" transform="translate(-51.45 -192.71)"/><path class="cls-10" d="M263.88,472.4h44.45v2.22H264.16a1.3,1.3,0,0,1-1.25-1.11h0A1,1,0,0,1,263.88,472.4Z" transform="translate(-51.45 -192.71)"/><path class="cls-10" d="M264.59,478.06h43.74v2.22H264.87a1.3,1.3,0,0,1-1.25-1.11h0A1,1,0,0,1,264.59,478.06Z" transform="translate(-51.45 -192.71)"/><path class="cls-10" d="M265.3,483.73h43V486H265.58a1.3,1.3,0,0,1-1.25-1.11h0A1,1,0,0,1,265.3,483.73Z" transform="translate(-51.45 -192.71)"/><path class="cls-33" d="M362.56,514.09s2.2-3.63,5.28-3.78,3,3.61,1.94,4.07S362.56,514.09,362.56,514.09Z" transform="translate(-51.45 -192.71)"/><path class="cls-33" d="M363.05,520.52l-.77-.17h0l-2.61-.58c.28,9.25,10.09,7.92,8.77.79l-4.31-.95-.16.47a.7.7,0,0,1-.78.47Z" transform="translate(-51.45 -192.71)"/><path class="cls-31" d="M305.87,432.19h73.68a5.7,5.7,0,0,1,5.74,6.6l-11.14,89.43a7.71,7.71,0,0,1-7.39,6.6H305.87Z" transform="translate(-51.45 -192.71)"/><path class="cls-32" d="M305.87,432.19h69.37a5.7,5.7,0,0,1,5.74,6.6l-11.14,89.43a7.7,7.7,0,0,1-7.39,6.6H305.87Z" transform="translate(-51.45 -192.71)"/><path class="cls-31" d="M305.87,494.5h61.37a2.22,2.22,0,0,1,2.23,2.56h0a3,3,0,0,1-2.86,2.55H305.87Z" transform="translate(-51.45 -192.71)"/><path class="cls-31" d="M305.87,502.28h59a3.46,3.46,0,0,1,3.48,4l-2.6,20.88a4.67,4.67,0,0,1-4.48,4H305.87Z" transform="translate(-51.45 -192.71)"/><path class="cls-31" d="M305.87,440.08H374a2.2,2.2,0,0,1,2.22,2.55h0a3,3,0,0,1-2.85,2.56H305.87Z" transform="translate(-51.45 -192.71)"/><path class="cls-10" d="M305.87,504.61h58a.86.86,0,0,1,.87,1h0a1.15,1.15,0,0,1-1.12,1H305.87v-2Zm0,21.37h55.3a.87.87,0,0,1,.87,1h0a1.17,1.17,0,0,1-1.12,1H305.87v-2Zm0-4.27H361.7a.86.86,0,0,1,.87,1h0a1.17,1.17,0,0,1-1.12,1H305.87v-2Zm0-4.28h56.37a.88.88,0,0,1,.87,1h0a1.17,1.17,0,0,1-1.12,1H305.87v-2Zm0-4.27h56.9a.87.87,0,0,1,.87,1h0a1.17,1.17,0,0,1-1.12,1H305.87v-2Zm0-4.28H363.3a.86.86,0,0,1,.87,1h0a1.17,1.17,0,0,1-1.12,1H305.87Z" transform="translate(-51.45 -192.71)"/><path class="cls-10" d="M360.18,469h2.24a1.27,1.27,0,0,1,1.29,1.48L362.9,477a1.73,1.73,0,0,1-1.66,1.48H359a1.28,1.28,0,0,1-1.29-1.48l.81-6.53A1.72,1.72,0,0,1,360.18,469Z" transform="translate(-51.45 -192.71)"/><path class="cls-31" d="M361,455h4.2a2.4,2.4,0,0,1,2.42,2.78L366,470a3.24,3.24,0,0,1-3.1,2.77h-4.2a2.4,2.4,0,0,1-2.42-2.77l1.52-12.22A3.24,3.24,0,0,1,361,455Z" transform="translate(-51.45 -192.71)"/><path class="cls-31" d="M305.87,450.63h41.59a1.82,1.82,0,0,1,1.83,2.11l-4.2,33.76a2.47,2.47,0,0,1-2.36,2.11H305.87Z" transform="translate(-51.45 -192.71)"/><path class="cls-10" d="M305.87,461.07h34.76a1,1,0,0,1,1,1.11h0a1.3,1.3,0,0,1-1.24,1.11H305.87Z" transform="translate(-51.45 -192.71)"/><path class="cls-10" d="M305.87,466.73h34.06a1,1,0,0,1,1,1.11h0a1.28,1.28,0,0,1-1.24,1.1H305.87Z" transform="translate(-51.45 -192.71)"/><path class="cls-10" d="M305.87,472.4h33.35a1,1,0,0,1,1,1.11h0a1.3,1.3,0,0,1-1.24,1.11H305.87Z" transform="translate(-51.45 -192.71)"/><path class="cls-10" d="M305.87,478.06h32.65a1,1,0,0,1,1,1.11h0a1.29,1.29,0,0,1-1.24,1.11H305.87Z" transform="translate(-51.45 -192.71)"/><path class="cls-10" d="M305.87,483.73h31.94a.94.94,0,0,1,1,1.1h0a1.29,1.29,0,0,1-1.24,1.11H305.87Z" transform="translate(-51.45 -192.71)"/><path class="cls-32" d="M341.32,455.52H329.53a1.3,1.3,0,0,0-1.25,1.11h0a1,1,0,0,0,1,1.1h11.8a1.29,1.29,0,0,0,1.24-1.1h0A1,1,0,0,0,341.32,455.52Z" transform="translate(-51.45 -192.71)"/><path class="cls-32" d="M325.63,455.52H297.68a1.28,1.28,0,0,0-1.24,1.11h0a.94.94,0,0,0,1,1.1h28a1.28,1.28,0,0,0,1.24-1.1h0A1,1,0,0,0,325.63,455.52Z" transform="translate(-51.45 -192.71)"/><path class="cls-2" d="M188.25,419.68a1.24,1.24,0,1,0-1.23-1.23A1.23,1.23,0,0,0,188.25,419.68Z" transform="translate(-51.45 -192.71)"/><path class="cls-2" d="M192.57,474a1.53,1.53,0,1,0-1.23-1.5A1.39,1.39,0,0,0,192.57,474Z" transform="translate(-51.45 -192.71)"/><path class="cls-12" d="M275,337.85a13.44,13.44,0,0,1,9.54,4,13.64,13.64,0,0,1,3.65,6.73,29.42,29.42,0,0,1,13.59,0,13.58,13.58,0,0,1,3.65-6.71,13.45,13.45,0,0,1,19.08,0,13.8,13.8,0,0,1,2.75,4l5.23-3.82a1.11,1.11,0,0,1,1.56.24,1.12,1.12,0,0,1-.25,1.57L328,348a13.91,13.91,0,0,1,.42,3.38,13.49,13.49,0,1,1-27,0c0-.21,0-.42,0-.62a26.9,26.9,0,0,0-13,0c0,.21,0,.41,0,.62a13.5,13.5,0,1,1-27,0,13.92,13.92,0,0,1,.44-3.44l-5.69-4.17a1.13,1.13,0,0,1-.24-1.57,1.11,1.11,0,0,1,1.56-.24l5.16,3.77A13.52,13.52,0,0,1,275,337.85Zm47.92,5.57a11.3,11.3,0,1,0,0,16,11.35,11.35,0,0,0,0-16Zm-40,0a11.3,11.3,0,1,0,0,16,11.35,11.35,0,0,0,0-16Z" transform="translate(-51.45 -192.71)"/><path class="cls-6" d="M264.28,256.69ZM261.22,245a6,6,0,1,0,1.72,4.19,5.87,5.87,0,0,0-1.72-4.19ZM260,239.12a10.52,10.52,0,0,1,2.31,1,10.74,10.74,0,0,1,2,1.53.35.35,0,0,0,.43.06l2.73-1.59h0a.67.67,0,0,1,.5-.06.69.69,0,0,1,.41.32v0l1.92,3.35a.62.62,0,0,1,.07.51.68.68,0,0,1-.31.42h0l-2.71,1.57a.35.35,0,0,0-.17.4h0a10.54,10.54,0,0,1,.22,1.25,10.86,10.86,0,0,1,.08,1.28,10.56,10.56,0,0,1-.08,1.27,9.87,9.87,0,0,1-.22,1.25.35.35,0,0,0,.19.41l2.71,1.58h0a.68.68,0,0,1,.24.93L268.37,258h0a.68.68,0,0,1-.93.24h0l-2.71-1.57a.36.36,0,0,0-.43.05,10.33,10.33,0,0,1-2,1.53,10.5,10.5,0,0,1-2.33,1,.36.36,0,0,0-.26.34v3.18a.63.63,0,0,1-.2.47.64.64,0,0,1-.47.21h-3.87a.65.65,0,0,1-.48-.21.63.63,0,0,1-.2-.47v-3.18a.36.36,0,0,0-.28-.35,10.06,10.06,0,0,1-2.31-1,10.33,10.33,0,0,1-2-1.53.36.36,0,0,0-.45,0l-2.71,1.58a.68.68,0,0,1-.52.06.66.66,0,0,1-.41-.31v0l-1.92-3.35h0a.68.68,0,0,1-.07-.52.67.67,0,0,1,.31-.41l2.73-1.59a.35.35,0,0,0,.17-.4h0a9.87,9.87,0,0,1-.23-1.25,10.56,10.56,0,0,1-.08-1.27,10.73,10.73,0,0,1,.08-1.28,10.57,10.57,0,0,1,.23-1.25.38.38,0,0,0-.19-.41l-2.72-1.57a.72.72,0,0,1-.31-.42.66.66,0,0,1,.07-.51v0l1.92-3.35h0a.72.72,0,0,1,.41-.32.73.73,0,0,1,.52.07h0l2.73,1.59a.38.38,0,0,0,.44-.06,10.67,10.67,0,0,1,2-1.53,10.47,10.47,0,0,1,2.33-1,.38.38,0,0,0,.26-.35V235.6a.64.64,0,0,1,.2-.48.68.68,0,0,1,.48-.2H259a.67.67,0,0,1,.47.2.64.64,0,0,1,.2.48v3.17A.36.36,0,0,0,260,239.12Z" transform="translate(-51.45 -192.71)"/><path class="cls-6" d="M214,266.05a12.73,12.73,0,0,0-4.14-2.78,12.71,12.71,0,0,0-9.74,0,12.87,12.87,0,0,0-6.9,6.93,13,13,0,0,0,0,9.79,12.84,12.84,0,0,0,6.9,6.94,12.71,12.71,0,0,0,9.74,0,12.83,12.83,0,0,0,7.87-11.83,12.9,12.9,0,0,0-1-4.9,12.62,12.62,0,0,0-2.76-4.15Zm-4.59-1.69a11.63,11.63,0,0,1,7.14,10.74,11.55,11.55,0,0,1-22.24,4.44,11.58,11.58,0,0,1,15.1-15.18Zm1.41-9.42a19.93,19.93,0,0,1,2.35.84,19.7,19.7,0,0,1,2.25,1.13,20.22,20.22,0,0,1,2.13,1.42,22,22,0,0,1,1.94,1.66,1.33,1.33,0,0,0,.76.37,1.43,1.43,0,0,0,.83-.17c1.87-1.09,3.84-2.16,5.67-3.29a.72.72,0,0,1,.27-.09,1.15,1.15,0,0,1,.32,0,.76.76,0,0,1,.28.15.77.77,0,0,1,.21.23c1.36,2.07,2.73,4.75,4,7a.83.83,0,0,1,.08.62,1,1,0,0,1-.14.29.83.83,0,0,1-.24.21c-1.68,1.12-3.85,2.23-5.63,3.27a1.36,1.36,0,0,0-.56.63,1,1,0,0,0-.08.28l-.12,0,.13.53c.1.42.19.83.27,1.25s.13.82.19,1.26.09.85.11,1.27,0,.84,0,1.29,0,.88,0,1.28-.06.85-.11,1.28-.12.86-.19,1.26-.17.83-.27,1.25a1.33,1.33,0,0,0,.08.88,1.36,1.36,0,0,0,.6.63l5,2.89h0l.59.34a.7.7,0,0,1,.24.21.87.87,0,0,1,.14.29.69.69,0,0,1,0,.32.63.63,0,0,1-.1.29l-3.69,6.44h0l-.3.52a.77.77,0,0,1-.21.23.74.74,0,0,1-.28.14.93.93,0,0,1-.33,0,1.25,1.25,0,0,1-.29-.1c-1.78-1.13-3.8-2.21-5.64-3.28a1.37,1.37,0,0,0-.83-.17,1.32,1.32,0,0,0-.76.36h0a20.57,20.57,0,0,1-1.94,1.67,20.13,20.13,0,0,1-2.13,1.41,18.52,18.52,0,0,1-2.27,1.14,18.25,18.25,0,0,1-2.39.85,1.28,1.28,0,0,0-.69.48,1.3,1.3,0,0,0-.27.81v6.55a.73.73,0,0,1-.06.3.8.8,0,0,1-.18.27,1,1,0,0,1-.26.18.73.73,0,0,1-.3.06h-8a.78.78,0,0,1-.31-.06,1,1,0,0,1-.26-.18.8.8,0,0,1-.18-.27.73.73,0,0,1-.06-.3v-6.55a1.35,1.35,0,0,0-.29-.83,1.32,1.32,0,0,0-.74-.47,20.49,20.49,0,0,1-4.6-2,21.07,21.07,0,0,1-2.12-1.41,20.57,20.57,0,0,1-1.94-1.67,1.33,1.33,0,0,0-.81-.36,1.29,1.29,0,0,0-.85.21l-5.58,3.24a1,1,0,0,1-.29.1.85.85,0,0,1-.32,0,.78.78,0,0,1-.29-.14.74.74,0,0,1-.2-.23c-1.33-2.33-2.67-4.64-4-7a.77.77,0,0,1-.1-.29,1.22,1.22,0,0,1,0-.33.92.92,0,0,1,.14-.28.76.76,0,0,1,.23-.21l5.64-3.27a1.36,1.36,0,0,0,.57-.64,1.72,1.72,0,0,0,.07-.21l.14,0-.14-.6c-.11-.42-.2-.83-.27-1.25s-.14-.82-.19-1.26-.09-.85-.12-1.28,0-.83,0-1.28,0-.88,0-1.29.07-.84.12-1.27.11-.87.19-1.27.16-.83.27-1.24a1.42,1.42,0,0,0-.09-.89,1.33,1.33,0,0,0-.6-.62l-5.58-3.24a.81.81,0,0,1-.24-.21.87.87,0,0,1-.14-.29,1.15,1.15,0,0,1,0-.32.88.88,0,0,1,.1-.3c1.36-2,2.73-4.76,4-7a.74.74,0,0,1,.2-.23.8.8,0,0,1,.29-.15,1.13,1.13,0,0,1,.32,0,.77.77,0,0,1,.29.1l5.65,3.27a1.33,1.33,0,0,0,.84.18,1.38,1.38,0,0,0,.76-.38,21.46,21.46,0,0,1,4-3.07,20.86,20.86,0,0,1,2.27-1.13,19.35,19.35,0,0,1,2.39-.85,1.36,1.36,0,0,0,.7-.49,1.34,1.34,0,0,0,.27-.81v-6.54a.81.81,0,0,1,.06-.31.87.87,0,0,1,.18-.26.68.68,0,0,1,.26-.18.78.78,0,0,1,.31-.06h8a.73.73,0,0,1,.3.06.8.8,0,0,1,.27.18.84.84,0,0,1,.23.57v6.54a1.31,1.31,0,0,0,.29.83,1.35,1.35,0,0,0,.74.48Zm2.81-.25a22.07,22.07,0,0,1,2.38,1.2,22.46,22.46,0,0,1,2.25,1.49,21.27,21.27,0,0,1,2,1.76.18.18,0,0,0,.09,0,.12.12,0,0,0,.1,0c1.9-1.1,3.8-2.19,5.69-3.3a2,2,0,0,1,.71-.23,2.33,2.33,0,0,1,.75.06,1.92,1.92,0,0,1,.7.35,2,2,0,0,1,.51.58c1.37,2.24,2.68,4.66,4,6.95a1.81,1.81,0,0,1,.25.74,2.27,2.27,0,0,1,0,.78,1.92,1.92,0,0,1-.35.7,1.8,1.8,0,0,1-.58.51c-1.81,1.13-3.78,2.2-5.63,3.27a.27.27,0,0,0-.07.08.31.31,0,0,0,0,.1l.13.53h0c.05.25.1.52.15.78.09.45.15.9.21,1.34s.09.88.12,1.34,0,.92,0,1.36,0,.89,0,1.35-.07.91-.12,1.35-.13.88-.21,1.33-.17.89-.28,1.32a.17.17,0,0,0,0,.1.19.19,0,0,0,.07.08c2.07,1.11,4.18,2.42,6.23,3.61l-.08.09.06.08a1.92,1.92,0,0,1,.35.7,2.25,2.25,0,0,1,0,.78,1.91,1.91,0,0,1-.25.74l-4.29,7.47-.08-.05-.13.11a2.09,2.09,0,0,1-.7.35,2.21,2.21,0,0,1-.77.05,1.92,1.92,0,0,1-.72-.24c-1.88-1-3.81-2.21-5.66-3.29a.16.16,0,0,0-.1,0,.12.12,0,0,0-.09,0,22.45,22.45,0,0,1-2,1.75,24.43,24.43,0,0,1-2.25,1.5,20.66,20.66,0,0,1-2.4,1.2,22.2,22.2,0,0,1-2.52.9.1.1,0,0,0-.08.06.11.11,0,0,0,0,.09v6.55a2,2,0,0,1-.15.76,2.16,2.16,0,0,1-.43.65,1.94,1.94,0,0,1-.65.43,1.9,1.9,0,0,1-.75.15h-8a1.91,1.91,0,0,1-.76-.15,2.16,2.16,0,0,1-.65-.43,2.37,2.37,0,0,1-.43-.65,2.19,2.19,0,0,1-.15-.76v-6.55a.17.17,0,0,0,0-.1.19.19,0,0,0-.09,0h0a20.89,20.89,0,0,1-2.52-.9,22.46,22.46,0,0,1-6.67-4.44.2.2,0,0,0-.09-.05.19.19,0,0,0-.1,0l-5.64,3.27a2,2,0,0,1-.73.25,2.27,2.27,0,0,1-.78-.05,2,2,0,0,1-.69-.35,1.84,1.84,0,0,1-.5-.57c-1.49-2.39-2.88-5-4.3-7.47l.08-.05a.57.57,0,0,1,0-.18,1.85,1.85,0,0,1,.05-.78,1.9,1.9,0,0,1,.34-.7,2.08,2.08,0,0,1,.58-.52l5.64-3.27a.11.11,0,0,0,.06-.07.12.12,0,0,0,0-.1l-.15-.6h0c0-.24-.09-.47-.14-.71-.08-.46-.15-.9-.2-1.34s-.1-.89-.12-1.35-.05-.91-.05-1.35,0-.9.05-1.36.07-.91.12-1.34.12-.88.2-1.34.18-.89.28-1.31a.14.14,0,0,0,0-.11.12.12,0,0,0-.07-.07l-5.63-3.27a1.92,1.92,0,0,1-.58-.51,2,2,0,0,1-.34-.7,1.86,1.86,0,0,1-.05-.78,2.09,2.09,0,0,1,.23-.72c1.34-2.5,2.88-5,4.3-7.49l.08,0,.14-.11a1.88,1.88,0,0,1,.69-.35,2,2,0,0,1,.78-.05,2,2,0,0,1,.73.24l.42.24h0l5.23,3a.15.15,0,0,0,.11,0,.18.18,0,0,0,.09,0v0a24.68,24.68,0,0,1,2-1.75,23.28,23.28,0,0,1,2.23-1.48,20.66,20.66,0,0,1,2.4-1.2,20,20,0,0,1,2.53-.9.16.16,0,0,0,.08-.06.17.17,0,0,0,0-.1v-6.54a2.1,2.1,0,0,1,.15-.76,2,2,0,0,1,.44-.65,2,2,0,0,1,.64-.43,1.91,1.91,0,0,1,.76-.16h8a1.9,1.9,0,0,1,.75.16,1.94,1.94,0,0,1,.65.43,2,2,0,0,1,.58,1.41v6.54a.15.15,0,0,0,0,.1.16.16,0,0,0,.08.06h0A22.56,22.56,0,0,1,213.67,254.69Z" transform="translate(-51.45 -192.71)"/><path class="cls-10" d="M151.29,561.24H436.65a6.56,6.56,0,0,1,6.52,6.55h0a6.56,6.56,0,0,1-6.52,6.55H151.29a6.55,6.55,0,0,1-6.52-6.55h0A6.55,6.55,0,0,1,151.29,561.24Z" transform="translate(-51.45 -192.71)"/><path class="cls-34" d="M137.41,551.08H450.52a8.35,8.35,0,0,1,8.31,8.35h0a8.36,8.36,0,0,1-8.31,8.36H137.41a8.36,8.36,0,0,1-8.31-8.36h0A8.35,8.35,0,0,1,137.41,551.08Z" transform="translate(-51.45 -192.71)"/><rect class="cls-35" x="275.75" y="358.37" width="17.3" height="16.71"/><rect class="cls-35" x="302.03" y="358.37" width="8.98" height="16.71"/><rect class="cls-35" x="320.45" y="358.37" width="4.49" height="16.71"/><rect class="cls-35" x="340.33" y="358.37" width="19.35" height="16.71"/><rect class="cls-35" x="374.27" y="358.37" width="9.67" height="16.71"/><path class="cls-36" d="M138.09,553.79H290.26a5,5,0,0,1,4.94,5h0a5,5,0,0,1-4.94,5H138.09a5,5,0,0,1-5-5h0A5,5,0,0,1,138.09,553.79Z" transform="translate(-51.45 -192.71)"/></svg>